<?xml version="1.0" encoding="utf-8"?>
<!-- Generator: Adobe Illustrator 17.0.0, SVG Export Plug-In . SVG Version: 6.00 Build 0)  -->
<!DOCTYPE svg PUBLIC "-//W3C//DTD SVG 1.1//EN" "http://www.w3.org/Graphics/SVG/1.1/DTD/svg11.dtd">
<svg version="1.1" id="Layer_1" xmlns="http://www.w3.org/2000/svg" xmlns:xlink="http://www.w3.org/1999/xlink" x="0px" y="0px"
	 width="25px" height="25px" viewBox="0 0 25 25" enable-background="new 0 0 25 25" xml:space="preserve">
<g id="Requests_icon_2_">
	<g>
		<path fill="#BDC1C9" d="M12.868,17.598c-0.759-0.354-2.226-0.707-2.732-1.162c-0.455-0.404-0.607-1.111-0.658-1.97
			c0.455,0.101,1.366,0.303,1.366,0.303c-0.101-0.101-0.506-0.404-0.557-0.556c0.658-0.05,1.619-0.202,1.619-0.202
			s-0.759-0.606-0.759-1.01c0.051-0.404,0.101-0.707,0.253-1.465c0.152-0.758,0.202-2.021-0.759-3.637
			c-1.164-1.869-3.339-1.617-3.39-1.01c-0.304-0.253-1.417-0.152-2.024,1.01c-0.86,1.667-0.911,2.576-0.809,3.687
			c0.051,0.758,0.304,1.01,0.304,1.465c0,0.454-1.164,0.859-1.164,0.859s1.366,0.202,2.024,0.303
			c-0.051,0.101-0.354,0.303-0.455,0.404c0,0,0.81-0.05,1.265-0.151c-0.101,0.859-0.202,1.566-0.658,1.97
			c-0.506,0.455-2.074,0.808-2.783,1.213c-0.911,0.454-1.467,1.768-1.568,3.233c-0.101,1.465,0.253,1.616,1.771,1.616h4.3h0.557
			h0.557h4.3c1.518,0,1.872-0.152,1.821-1.616C14.588,19.315,13.88,18.052,12.868,17.598z M23.594,19.871
			c-0.253-2.677-1.214-2.576-4.908-4.496c-0.557-0.303-0.557-0.758-0.658-1.061c-0.051-0.202-0.101-0.758-0.152-1.212
			c0.051-0.101,0.152-0.202,0.202-0.303c0.152-0.303,0.202-0.707,0.304-1.212c0.101,0,0.202-0.05,0.253-0.152
			c0-0.05,0.202-0.404,0.253-0.707c0.051-0.202,0.051-0.354,0.051-0.505c0-0.202-0.101-0.404-0.202-0.455h-0.152
			c0-0.556,0.051-1.01,0.051-1.414c0.202-0.101,0.405-0.152,0.405-0.202c0-0.101,0-2.778-3.137-2.778
			c-0.708,0-1.214,0.253-1.619,0.606c-0.961,0.101-1.214,0.657-1.164,2.576c0,0.353,0.051,0.758,0.101,1.212H13.02
			c-0.101,0.051-0.202,0.253-0.202,0.455c0,0.152,0.051,0.253,0.101,0.505c0.051,0.253,0.202,0.657,0.253,0.707
			c0.051,0.101,0.152,0.152,0.253,0.152c0.101,0.556,0.202,1.01,0.455,1.364c0.051,0.051,0.101,0.101,0.152,0.152
			c-0.051,0.455-0.101,1.01-0.152,1.212c-0.051,0.303-0.051,0.758-0.658,1.061c-0.405,0.202-0.81,0.404-1.164,0.606
			c1.012,0.404,2.378,1.061,3.036,1.869c0.81,1.01,0.759,2.324,0.759,3.89c0,0.253-0.152,0.505-0.253,0.758h0.354h5.565
			c1.518,0,2.024-0.152,2.074-1.819C23.645,20.376,23.594,20.073,23.594,19.871z"/>
	</g>
</g>
</svg>
