<?xml version="1.0" encoding="utf-8"?>
<!-- Generator: Adobe Illustrator 17.0.0, SVG Export Plug-In . SVG Version: 6.00 Build 0)  -->
<!DOCTYPE svg PUBLIC "-//W3C//DTD SVG 1.1//EN" "http://www.w3.org/Graphics/SVG/1.1/DTD/svg11.dtd">
<svg version="1.1" id="Layer_1" xmlns="http://www.w3.org/2000/svg" xmlns:xlink="http://www.w3.org/1999/xlink" x="0px" y="0px"
	 width="25px" height="25px" viewBox="0 0 25 25" enable-background="new 0 0 25 25" xml:space="preserve">
<path fill="#BDC1C9" d="M6.996,13.753v-5h-3c-1.105,0-2,0.896-2,2v6c0,1.104,0.896,2,2,2h0.989l-0.045,4.12l4.873-4.12h3.183
	c1.105,0,2-0.896,2-2v-1h-6C7.892,15.753,6.996,14.857,6.996,13.753z M21.002,3.751H9.993c-1.106,0-2.002,0.896-2.002,2.001v7.004
	c0,1.105,0.896,2.001,2.002,2.001h6.209l4.796,3.99v-3.99h0.003c1.105,0,2.002-0.896,2.002-2.001V5.752
	C23.004,4.647,22.108,3.751,21.002,3.751z"/>
</svg>
