<?xml version="1.0" encoding="utf-8"?>
<!-- Generator: Adobe Illustrator 17.0.0, SVG Export Plug-In . SVG Version: 6.00 Build 0)  -->
<!DOCTYPE svg PUBLIC "-//W3C//DTD SVG 1.1//EN" "http://www.w3.org/Graphics/SVG/1.1/DTD/svg11.dtd">
<svg version="1.1" id="Layer_1" xmlns="http://www.w3.org/2000/svg" xmlns:xlink="http://www.w3.org/1999/xlink" x="0px" y="0px"
	 width="25px" height="25px" viewBox="0 0 25 25" enable-background="new 0 0 25 25" xml:space="preserve">
<g id="Noti_xFB01_cations_iicon_2_">
	<g>
		<path fill="#BDC1C9" d="M12.5,2.502c-5.526,0-10.004,4.475-10.004,9.998c0,5.522,4.478,9.997,10.004,9.997
			c5.526,0,10.004-4.475,10.004-9.997C22.504,6.978,18.026,2.502,12.5,2.502z M17.407,16.975c-0.81,0.666-0.953,2.095-2.287,3.094
			s-2.763,1.285-2.43,0.762c0.715-1.19,0.238-3.237-0.048-3.523c-0.953-1.047-1.667-0.952-1.62-2.142
			c0-0.238,0.048-0.381,0.095-0.524c-0.095-0.047-0.238-0.143-0.524-0.238c-0.524-0.143-0.619-0.381-0.857-0.571
			C9.546,13.69,9.499,13.5,9.356,13.309c-0.048-0.047-0.095-0.143-0.095-0.19c-0.286,0.047-0.476,0-0.572,0
			c-0.095,0.047-0.429-0.143-0.572-0.333c-0.667-0.143-1.524-0.619-1.81-1.285C5.593,9.929,5.688,9.12,5.878,8.31
			c0.095-0.476-0.429-1,0.143-1.666c1.143-1.476,2.001-2,2.62-2.285c0.953-0.476,2.62-0.762,3.096-0.619
			c0.81,0.238,0.048,1.143,0.19,2.047c0.143,0.904,0.857,0.428,1.382-0.095c0.524-0.523,1.191-1,2.096-0.047
			c0.762,0.857-0.429,1.523-1.143,1.571c-0.667,0.048-0.905,1.428-1.334,1.857c-0.381,0.429-1.286,1-1.239,1.428
			c0.048,0.428,0.095,1.523-0.715,1.19c-0.429-0.19-0.286-0.762-0.143-1.381c0.095-0.619-0.048-0.428-0.762-0.619
			c-0.715-0.19-0.857,0.238-1.382,0.095c-0.524-0.095-0.619,0.714-0.715,1.143c-0.191,0.762,0.333,1.095,0.572,1.238
			c0.429-0.095,0.619-0.333,0.715-0.285c0.381,0.19,1.048,0.476,0.619,0.952H9.832c0.381,0.048,0.81,0.238,0.476,0.619
			c-0.524,0.619,0.619,0.429,0.858,0.571c0.095,0.048,0.238,0.143,0.381,0.191c0.286-0.238,0.762-0.381,1.143-0.762
			c0.667-0.714,2.287-0.762,2.811-0.095c0.857,1.095,2.096,1.19,2.572,1.761C18.55,15.642,18.217,16.356,17.407,16.975z
			 M20.837,13.452c-0.191-1-0.667-1.143-1.191-1.809c-0.524-0.667-0.286-1.666,0.524-2.571c0.762-0.952,1.191,1.952,1.334,2.999
			c0.191,1.047-0.381,3.332-0.381,3.332S21.027,14.452,20.837,13.452z"/>
	</g>
</g>
</svg>
