<?xml version="1.0" standalone="no"?> <!DOCTYPE svg PUBLIC "-//W3C//DTD SVG 1.0//EN" "http://www.w3.org/TR/2001/REC-SVG-20010904/DTD/svg10.dtd" > <svg xmlns="http://www.w3.org/2000/svg" width="100%" height="100%">
<defs >
<font id="FournierMT-Italic" horiz-adv-x="338" ><font-face
    font-family="FournierMT-Italic"
    units-per-em="1000"
    panose-1="0 0 0 0 0 0 0 0 0 0"
    ascent="827"
    descent="-337"
    alphabetic="0" />
<missing-glyph horiz-adv-x="209" />
<glyph unicode=" " glyph-name="space" horiz-adv-x="209" />
<glyph unicode="!" glyph-name="exclam" horiz-adv-x="340" d="M187 168H157Q261 497 293 570Q313 618 344 618Q359 618 368 609T378 586Q378 567 338 493Q291 401 187 168ZM109 100Q136 100 150 85T164 49Q164 26 149 10T114 -6T77 8T59 45Q59 65 72 82T109 100Z" />
<glyph unicode="&quot;" glyph-name="quotedbl" horiz-adv-x="395" d="M153 307L167 452Q173 510 177 529T194 565Q213 593 244 593Q263 593 272 583T282 558Q282 537 242 451L174 307H153ZM334 307L348 452Q354 510 358 529T375 565Q394 593 425 593Q444 593
453 583T463 558Q463 537 423 451L355 307H334Z" />
<glyph unicode="#" glyph-name="numbersign" horiz-adv-x="667" d="M110 451H271L313 651H364L321 451H536L578 651H629L587 451H687V400H577L538 209H687V159H527L485 -41H434L476 159H260L219 -41H168L210 159H110V209H220L260 400H110V451ZM526 400H311L271
210H487L526 400Z" />
<glyph unicode="$" glyph-name="dollar" horiz-adv-x="479" d="M443 629L421 572Q518 529 518 473Q518 460 511 451T491 441T471 450T459 466T451 491Q442 520 410 540L328 320Q388 253 407 221T427 147Q427 109 409 80T372 36Q345 16 311 6T258 -5T206 -5L175
-91H140L173 0Q151 11 139 17T105 38T74 68T63 104Q63 122 72 130T93 138Q109 138 116 127T130 93Q139 62 151 51T186 32L277 276Q187 374 187 440Q187 495 231 540T347 585Q367 585 391 581L408 629H443ZM301 248L218 26Q282 22 324 51T367 130Q367 157 356 176T301
248ZM303 347L379 550Q365 554 351 554Q315 554 278 533T241 462Q241 434 256 410T303 347Z" />
<glyph unicode="%" glyph-name="percent" horiz-adv-x="619" d="M312 601T279 601T219 550T179 446T166 366Q166 318 198 318Q237 318 274 400T312 550Q312 601 279 601ZM280 626Q311 626 330 608T354 569T360 524Q360 441 307 368T197 294Q168 294 149 313T124
354T118 396Q118 437 135 488T191 582T280 626ZM597 626H639L147 -46H106L597 626ZM583 261T550 261T490 210T450 106T437 26Q437 -22 469 -22Q508 -22 545 60T583 210Q583 261 550 261ZM551 286Q582 286 601 268T625 229T631 184Q631 101 578 28T468 -46Q439 -46
420 -27T395 14T389 56Q389 97 406 148T462 242T551 286Z" />
<glyph unicode="&amp;" glyph-name="ampersand" horiz-adv-x="635" d="M233 371Q217 391 217 411Q217 470 293 527T439 585Q477 585 503 561T530 506Q530 473 504 457T449 440Q430 440 430 455Q430 462 443 472Q463 487 463 506Q463 526 449 538T418 550Q383 550
330 507T276 406Q276 383 290 383Q298 386 299 386Q304 388 311 388Q332 388 345 376T359 347T346 315T311 299Q283 299 272 326Q270 333 268 336T262 341T251 344Q220 344 183 307T145 219Q145 155 194 100T317 45Q379 45 424 83T470 169Q470 194 453 213T402
233Q374 233 374 220Q374 211 390 206Q409 198 409 178Q409 160 397 149T368 138Q347 138 334 154T320 195Q320 258 396 258Q424 258 470 251Q509 245 527 245Q546 245 560 250T580 260T586 271Q586 280 571 280Q538 287 538 314Q538 333 553 344T590 356Q610 356
626 344T642 305Q642 266 611 241T525 216Q520 216 482 220Q498 191 498 161Q498 136 486 109T449 55T383 11T287 -7Q192 -7 139 52T85 183Q85 268 152 326Q179 349 233 371Z" />
<glyph unicode="&apos;" glyph-name="quotesingle" horiz-adv-x="214" d="M153 307L167 452Q173 510 177 529T194 565Q213 593 244 593Q263 593 272 583T282 558Q282 537 242 451L174 307H153Z" />
<glyph unicode="(" glyph-name="parenleft" horiz-adv-x="365" d="M535 667V635Q407 589 312 496T169 287T121 52Q121 -9 135 -66T160 -149T192 -213L172 -233Q133 -179 114 -124Q81 -27 81 71Q81 194 139 323T315 553Q419 643 535 667Z" />
<glyph unicode=")" glyph-name="parenright" horiz-adv-x="365" d="M-161 -233V-201Q-33 -155 62 -62T205 147T253 382Q253 443 239 500T214 583T182 647L202 667Q241 613 260 558Q293 461 293 363Q293 240 235 111T59 -119Q-45 -209 -161 -233Z" />
<glyph unicode="*" glyph-name="asterisk" horiz-adv-x="333" d="M285 640H319L330 526L438 570L453 539L355 474L456 405L432 375L330 423L319 305H282L271 423L164 375L146 405L244 472L154 544L170 571L273 523L285 640Z" />
<glyph unicode="+" glyph-name="plus" horiz-adv-x="667" d="M135 320H372V557H425V320H662V267H425V30H372V267H135V320Z" />
<glyph unicode="," glyph-name="comma" horiz-adv-x="313" d="M-2 -162Q-3 -149 0 -146T18 -137Q75 -123 103 -99Q122 -83 132 -62T142 -24Q142 8 90 11Q44 11 44 44Q44 67 63 86T111 105Q142 105 167 80T192 12Q192 -63 112 -123Q72 -153 -2 -162Z" />
<glyph unicode="-" glyph-name="hyphen" horiz-adv-x="333" d="M37 224H298V159H35L37 224Z" />
<glyph unicode="." glyph-name="period" horiz-adv-x="240" d="M117 -4Q90 -4 74 11T58 48Q58 71 73 87T116 104Q141 104 158 88T176 49T159 12T117 -4Z" />
<glyph unicode="/" glyph-name="slash" horiz-adv-x="521" d="M620 672H684L89 -12H25L620 672Z" />
<glyph unicode="0" glyph-name="zero" horiz-adv-x="417" d="M342 593Q382 593 409 573T447 519T462 462T466 412Q466 243 354 94Q278 -7 201 -7Q158 -7 129 27T91 100T81 174Q81 228 99 298T148 435T231 547T342 593ZM342 562Q274 562 220 453Q194 401 166 295T137
119Q137 101 140 83T160 44T204 24Q255 24 303 102T379 282T407 462Q407 562 342 562Z" />
<glyph unicode="1" glyph-name="one" horiz-adv-x="417" d="M395 593H430L209 0H145L327 489Q247 442 185 425L195 458Q265 486 313 516T395 593Z" />
<glyph unicode="2" glyph-name="two" horiz-adv-x="417" d="M110 60H259Q304 60 326 75T368 125H399L337 0H31V28L231 198Q324 276 354 330T385 436Q385 483 361 513T297 543Q216 543 187 434H159Q191 593 314 593Q377 593 415 550T453 445Q453 403 436 364T382
287T320 227T248 169Q140 86 110 60Z" />
<glyph unicode="3" glyph-name="three" horiz-adv-x="417" d="M182 299L181 325Q305 366 334 383Q394 417 394 471Q394 501 373 523T316 545Q259 545 223 482H192Q202 503 209 515T234 549T275 582T330 593Q387 593 420 561T454 478Q454 377 306 340Q327 329 339
321T370 296T397 253T406 194Q406 108 343 51T195 -6Q130 -6 89 28T47 109Q47 127 56 138T81 150Q115 150 115 96Q115 82 116 73T124 51T147 32T188 25Q253 25 297 68T341 181Q341 245 307 273T227 302Q210 302 182 299Z" />
<glyph unicode="4" glyph-name="four" horiz-adv-x="417" d="M454 593H490L356 230H427Q439 230 439 221Q439 199 428 188Q419 182 409 182H337L269 1H208L276 182H81Q66 182 66 197Q66 222 80 234L454 593ZM294 230L386 478L127 230H294Z" />
<glyph unicode="5" glyph-name="five" horiz-adv-x="417" d="M257 583H448Q449 583 470 597Q476 599 483 599Q499 599 499 588Q499 580 492 571L463 529H267L206 388H231Q305 388 354 338T404 217Q404 129 338 62T179 -6Q126 -6 87 18T47 71Q47 82 55 90T78 98Q99
98 126 71Q149 47 167 39T210 31Q260 31 303 81T347 193Q347 249 311 289T218 330Q188 330 137 311L257 583Z" />
<glyph unicode="6" glyph-name="six" horiz-adv-x="417" d="M474 557Q429 546 405 538T348 510T285 459Q229 400 193 320T156 160Q156 103 178 65T245 27Q294 27 322 79T350 197Q350 291 271 302Q249 306 249 318Q249 327 262 332T288 338Q339 338 377 300T415
196Q415 106 364 51T243 -4Q171 -4 133 54T94 188Q94 275 142 363T264 509Q305 541 360 561T446 587T492 593Q514 593 514 580Q514 571 507 568T474 557Z" />
<glyph unicode="7" glyph-name="seven" horiz-adv-x="417" d="M189 585H508L145 -7L110 14L423 527H248Q229 527 215 521T190 502T175 481T163 458H138L189 585Z" />
<glyph unicode="8" glyph-name="eight" horiz-adv-x="417" d="M233 320Q172 387 172 445Q172 502 217 547T336 593Q404 593 439 556T474 472Q474 374 322 323Q364 282 384 247T405 168Q405 91 349 42T216 -7Q149 -7 105 33T61 135Q61 225 153 284Q182 302 233
320ZM299 345L319 352Q420 388 420 472Q420 517 395 539T331 562Q282 562 254 534T226 469Q226 448 238 424T263 385T299 345ZM255 298Q212 282 192 268Q115 216 115 128Q115 75 146 50T221 24Q277 24 313 59T349 144Q349 183 326 218T255 298Z" />
<glyph unicode="9" glyph-name="nine" horiz-adv-x="417" d="M67 -7Q47 -7 47 11Q47 19 52 21T78 29Q155 46 214 86T307 173T362 272T391 365T398 435Q398 490 376 525T316 561Q266 561 236 516T206 408Q206 355 226 324T275 291Q289 290 293 289T301 285T304
276Q304 256 268 256Q209 256 175 297T140 402Q140 482 190 537T312 592Q385 592 422 535T460 400Q460 304 407 215T271 71Q221 39 161 16T67 -7Z" />
<glyph unicode=":" glyph-name="colon" horiz-adv-x="281" d="M58 102T85 102T125 85T138 48Q138 24 120 11T85 -3Q69 -3 53 12T36 51Q36 69 47 85ZM191 362Q218 362 231 345T244 305Q244 257 194 257Q172 257 159 270T144 294T142 311Q142 333 157 347T191 362Z" />
<glyph unicode=";" glyph-name="semicolon" horiz-adv-x="281" d="M200 305Q223 305 236 291T250 258T236 222T198 204Q176 204 163 219T149 256Q149 280 165 292T200 305ZM-18 -140L-20 -126Q-21 -118 -17 -116T4 -109Q63 -95 95 -68T128 -18Q128 -9 123 -4T113
2T91 6Q76 8 65 20T53 50Q53 69 68 88T113 108Q147 108 170 84T194 18Q194 -50 125 -94T-18 -140Z" />
<glyph unicode="&lt;" glyph-name="less" horiz-adv-x="667" d="M662 541V483L205 294L662 106V49L135 271V318L662 541Z" />
<glyph unicode="=" glyph-name="equal" horiz-adv-x="667" d="M135 435H662V382H135V435ZM135 208H662V155H135V208Z" />
<glyph unicode="&gt;" glyph-name="greater" horiz-adv-x="667" d="M135 540L662 317V270L135 48V105L592 293L135 482V540Z" />
<glyph unicode="?" glyph-name="question" horiz-adv-x="385" d="M189 170H155V242Q155 340 213 372L325 436Q390 471 390 511Q390 527 380 539T356 552Q349 552 324 540Q295 528 282 528Q267 528 257 537T246 566Q246 592 267 604T320 617T374 602T407 562T421
518T426 482Q426 434 398 406T304 344Q234 308 212 282T189 202V170ZM145 -4Q122 -4 109 8T93 30T90 51Q90 71 106 85T143 100Q164 100 182 85T200 45Q200 22 183 9T145 -4Z" />
<glyph unicode="@" glyph-name="at" horiz-adv-x="921" d="M740 366L683 172Q638 18 638 -14Q638 -25 647 -38T674 -51Q703 -51 737 -31T796 19Q881 120 881 267Q881 398 794 483T565 568Q471 568 391 528T258 421T176 272T146 103Q146 -71 254 -179T528 -287Q604
-287 673 -264T811 -177T921 -17H949Q918 -114 850 -183T698 -285T526 -317Q344 -317 222 -195T100 116Q100 217 137 306T237 458T384 557T562 593Q648 593 716 565T826 489T889 382T911 258Q911 213 901 166T867 73T813 -7T737 -64T641 -86Q567 -86 567 -19Q567
10 575 52Q553 25 537 8T494 -35T439 -73T383 -87Q341 -87 318 -51T295 27Q295 101 339 182T446 316T563 369Q601 369 626 346Q640 332 648 302L664 356L740 366ZM569 346Q525 346 477 287T401 157T372 42Q372 15 387 -6T428 -28Q470 -28 509 11T577 94Q597 125
613 182T630 276Q630 305 614 325T569 346Z" />
<glyph unicode="A" glyph-name="A" horiz-adv-x="594" d="M568 583H612L476 37L554 34L545 3L317 0V31Q337 36 372 36Q389 36 393 41Q394 42 396 47T400 59T404 71L409 89Q426 139 437 191Q429 191 389 188T341 184L318 185Q294 186 270 187T241 189Q172 117 128
65Q118 54 112 45Q136 36 186 31L178 4L149 0L-16 2L-14 33Q33 39 46 46Q56 52 181 181L568 583ZM448 228L478 338Q482 354 509 471L279 227Q313 223 342 223Q407 223 448 228Z" />
<glyph unicode="B" glyph-name="B" horiz-adv-x="583" d="M273 539Q225 542 191 546L199 573L249 575Q255 575 295 573Q315 572 341 572Q376 572 386 573Q424 575 430 575Q461 575 503 568Q554 559 577 525T601 454Q601 415 576 381T516 329Q486 314 415 298Q477
271 493 251Q523 215 523 166T490 78T418 21Q401 14 389 11T335 5T216 2L-1 0V35Q2 36 17 38T46 42T64 46Q78 52 84 60T105 101L222 392Q256 479 273 539ZM357 536L272 319Q300 314 327 314Q402 314 463 355T525 459Q525 497 499 520T430 544Q393 544 357 536ZM259
285L163 50Q244 29 268 29Q291 29 318 37T374 61T422 107T441 176Q441 287 300 287Q293 287 259 285Z" />
<glyph unicode="C" glyph-name="C" horiz-adv-x="556" d="M628 547L584 425L562 424Q567 481 567 495Q567 514 558 527T533 545T508 552T491 554Q374 554 276 445T178 195Q178 113 221 76T321 39Q409 39 502 132L520 113Q502 91 488 78T444 41T374 6T286 -6Q232
-6 193 12T133 59T103 119T93 180Q93 274 145 366T293 522T502 585Q576 585 628 547Z" />
<glyph unicode="D" glyph-name="D" horiz-adv-x="704" d="M365 580L449 578Q588 574 652 510Q709 453 709 357Q709 214 589 107T306 0H156Q153 0 5 4L9 39H35Q66 39 80 49T109 88L150 179L288 511L294 532Q294 540 287 541T260 542L190 540L201 572Q307 580 365
580ZM402 549L382 546L177 49Q217 31 267 31Q346 31 411 57T516 122T583 210T622 302T633 380Q633 425 618 458T577 509T526 536T471 548T427 550T402 549Z" />
<glyph unicode="E" glyph-name="E" horiz-adv-x="594" d="M214 572H569H643Q659 572 659 561Q659 548 613 436L583 438Q590 480 590 491Q590 518 570 527T478 538L422 539H365Q358 536 337 478L277 324Q297 324 319 324T349 323Q350 323 377 321T411 319Q425 319
430 322T443 340Q455 362 470 397L503 391L436 196L406 192L414 277Q359 284 307 284H256L168 74Q168 73 167 70T166 65Q166 46 235 40H336L474 45Q482 50 486 53T497 67T512 96Q522 120 528 127T545 135Q551 135 567 131L547 65Q546 62 541 44T535 22Q532 13 524
-1H-9L-8 32Q24 38 56 42Q69 44 74 54T98 109Q130 193 214 371L265 502Q272 516 272 528Q272 534 260 536Q252 538 232 540T207 543L214 572Z" />
<glyph unicode="F" glyph-name="F" horiz-adv-x="542" d="M248 255L183 74Q176 56 176 51Q176 42 191 40Q216 35 222 35Q224 35 232 35T247 36T257 36Q267 33 267 25Q267 23 265 13T262 0L11 3L9 36Q37 41 80 43L101 73L259 505Q264 520 264 528Q264 540 232 540H182L193
572L251 575L620 572Q618 552 613 538L580 427H552L553 492Q554 519 533 529T484 540H348L261 293L395 294Q406 294 410 296T418 308L439 365L469 362Q437 228 413 162L379 163Q400 223 400 246Q400 253 385 254Q374 255 334 255H248Z" />
<glyph unicode="G" glyph-name="G" horiz-adv-x="643" d="M629 449L597 450Q591 524 590 526Q582 550 499 550Q449 550 391 528T288 458Q242 408 229 384Q181 295 181 205Q181 124 230 74T350 24Q436 24 463 99Q469 114 479 151T491 200L402 203L407 238H653L650
206L571 196L521 29Q455 5 428 -1T350 -7Q314 -7 290 -5T227 11T159 54Q102 108 102 202Q102 364 220 474T505 585Q596 585 651 553Q646 515 629 449Z" />
<glyph unicode="H" glyph-name="H" horiz-adv-x="688" d="M201 574L428 573L419 541Q399 537 379 537Q358 537 353 535T343 520L272 321Q334 312 530 312H556L631 513Q637 525 637 532Q637 538 623 538Q613 539 594 540T571 542L578 573L705 568Q725 567 789 574L788
557Q787 546 783 543T768 539Q734 539 726 536T710 514L547 74Q547 73 543 61T539 45Q539 38 554 38Q578 35 603 35L596 0L489 4L382 2L389 37Q439 41 450 47T474 88L541 266L449 272Q438 273 364 273H250L167 43Q172 42 203 39T240 35L234 2L7 1L14 36L80 41L262
510Q268 522 268 533Q268 541 258 541Q207 541 190 543L201 574Z" />
<glyph unicode="I" glyph-name="I" horiz-adv-x="313" d="M202 574L413 573V540Q368 537 358 533T341 514L159 41L230 35L224 0H5V31H35Q62 31 73 39T95 73L245 462Q246 464 250 476T258 499T264 513Q271 530 271 534Q271 540 250 540L202 541Q199 547 199 550Q199
552 200 562T202 574Z" />
<glyph unicode="J" glyph-name="J" horiz-adv-x="354" d="M466 576L454 543Q444 542 421 540T394 538L256 159Q189 -21 137 -93Q64 -193 -49 -193Q-87 -193 -109 -178T-132 -138Q-132 -120 -119 -107T-84 -93Q-45 -93 -43 -136Q-42 -156 -35 -159Q-31 -161 -25
-161Q-5 -161 20 -146T65 -105Q96 -63 123 6L297 468Q312 506 319 539L237 537V574Q283 572 337 572Q346 572 354 572T376 573T403 574Q413 574 435 574T466 576Z" />
<glyph unicode="K" glyph-name="K" horiz-adv-x="615" d="M197 574L428 575L429 571Q430 567 430 565Q430 560 424 544Q380 544 366 542Q356 540 352 530L257 304Q322 334 417 399T576 539Q540 543 535 543H517L525 574H692L681 539H633Q629 535 605 513T576 486Q463
388 400 345L461 143Q466 127 483 90T511 45T541 35Q555 35 600 31L588 2H448Q424 32 408 75L368 201Q343 286 334 307L238 262L160 37L240 33L234 2H-4L-1 33H33Q58 33 72 50T117 142L266 512Q274 528 274 533Q274 543 255 543Q253 543 193 547L197 574Z" />
<glyph unicode="L" glyph-name="L" horiz-adv-x="552" d="M179 574L446 575L445 540H415Q370 540 359 536T340 513L198 150L152 43Q243 36 285 36L354 38Q370 38 402 45T450 63Q467 75 512 133H542Q520 65 504 18Q500 5 495 2T477 -2Q434 -2 318 2Q306 2 246 3T159
5Q125 5 17 -1H-29L-30 20Q-31 29 -21 32T35 39Q68 42 82 62Q98 89 141 196L242 452L259 509Q262 520 262 528Q262 538 244 539Q240 539 222 541T201 543H179V574Z" />
<glyph unicode="M" glyph-name="M" horiz-adv-x="802" d="M166 573L209 576Q260 579 279 579Q334 579 363 570L387 104Q513 274 514 277L679 506Q689 519 702 540L727 576L877 578L878 546L816 543L680 101L663 37H749L735 2L512 0V33L586 40L731 515L624 375L420
92L347 -4L315 -3V81L295 514L274 462Q272 458 263 431T251 399L157 167L111 36Q140 36 165 37Q177 38 182 35T187 20L188 2L62 3Q56 3 24 1T-13 -1Q-28 -1 -28 18Q-28 33 -13 33L68 40L222 419L258 518L262 541L166 543V573Z" />
<glyph unicode="N" glyph-name="N" horiz-adv-x="646" d="M173 577L276 581L310 578L332 577Q349 532 363 489Q371 463 389 409L450 233L488 137Q590 391 612 467Q627 512 627 523Q627 532 595 534H538Q544 559 553 573H623L689 576H764L763 537L715 533Q691 531
684 526T666 495L474 -12H448L334 345L289 467L143 92Q136 78 136 66Q136 41 217 41H240L229 2L-6 3V43Q30 43 43 44T73 58T98 89T125 153L255 489Q263 505 263 521Q263 530 254 534T213 539H173V577Z" />
<glyph unicode="O" glyph-name="O" horiz-adv-x="665" d="M337 -12Q263 -12 209 25T132 115T108 224Q108 314 153 399T279 538T455 593Q558 593 614 527T670 370Q670 281 631 195T513 48T337 -12ZM273 21T344 21T473 78T561 216T591 380Q591 409 585 437T564 495T520
543T450 562Q373 562 312 507T219 372T187 208Q187 123 230 72Z" />
<glyph unicode="P" glyph-name="P" horiz-adv-x="573" d="M247 267L166 33Q188 31 204 31H245L234 0H9L13 31L86 35Q103 68 123 126L262 537Q238 540 181 538L184 573L451 575Q496 575 528 562T576 531T599 490T609 457T610 439Q610 415 599 385T563 321T488 264T371
241Q330 241 303 249Q283 253 247 267ZM371 542L340 540L257 289Q304 274 346 274Q435 274 486 324T537 443Q537 515 493 534Q462 548 371 542Z" />
<glyph unicode="Q" glyph-name="Q" horiz-adv-x="692" d="M698 -167V-195Q601 -212 543 -212Q465 -212 403 -190T308 -135Q277 -105 268 -75T253 7Q200 32 177 54Q116 113 116 228Q116 315 166 398T301 533T476 585Q576 585 628 516T680 355Q680 270 633 182T498
42Q428 1 339 -4Q334 -22 334 -27Q334 -63 362 -95T427 -147Q484 -179 574 -179Q628 -179 698 -167ZM474 558Q427 558 377 526T287 444T221 329T195 201Q195 125 230 74T331 23Q394 23 458 73T565 209T608 384Q608 400 607 416T597 460T576 508T537 543T474 558Z"
/>
<glyph unicode="R" glyph-name="R" horiz-adv-x="615" d="M181 573L338 578Q364 579 406 579Q429 579 445 578T487 574T529 564T563 545T589 515T598 470Q598 408 546 351Q503 304 416 274Q440 255 453 230T471 187T480 132Q487 84 493 67T510 44Q531 33 593 28L590
-3H511Q466 -3 435 36T403 150Q403 199 398 219T368 255Q342 273 306 273H248L177 72Q173 62 173 54T177 43T184 39T198 37Q202 37 227 36T256 33L243 0L148 5L9 0V21Q9 37 45 39Q74 40 81 44T95 65L251 477Q258 495 269 538Q218 535 184 541L181 573ZM422 543L351
541L281 365Q264 321 260 302Q263 302 283 301T313 300Q395 300 436 323T499 387T522 466Q522 504 494 524T422 543Z" />
<glyph unicode="S" glyph-name="S" horiz-adv-x="515" d="M523 431L497 435V458Q497 506 472 534T398 562Q343 562 312 531T281 462Q281 439 296 409T329 355T392 276Q441 218 441 163Q441 98 385 43T242 -12Q142 -12 55 46Q55 47 55 55T54 69Q54 98 77 154Q110
159 110 139Q110 136 109 123T107 108Q107 72 144 47T236 21Q294 21 333 54T372 132Q372 153 363 175T345 210T318 246Q250 332 231 364T211 432Q211 492 259 542T381 593Q452 593 543 536Q542 508 523 431Z" />
<glyph unicode="T" glyph-name="T" horiz-adv-x="615" d="M573 573L701 576V561Q701 521 673 429H648V446Q648 507 635 518Q614 536 515 536Q506 536 502 536T494 535T488 531T484 523Q474 506 462 472L365 212Q328 114 309 46L352 40Q360 38 381 38Q393 35 405
31L396 0L141 4Q129 4 129 13Q129 32 135 35T169 39Q210 39 218 43T235 71L362 414Q399 514 399 521Q399 532 362 536Q322 540 304 540Q254 540 223 516T160 440H132Q158 522 170 546Q182 572 198 572H216Q227 572 254 572T288 573H332H573Z" />
<glyph unicode="U" glyph-name="U" horiz-adv-x="719" d="M202 573H440L434 536H416Q372 536 367 533T355 508Q349 494 343 479T333 454T329 442L241 196Q228 160 228 124Q228 92 260 66T351 39Q450 39 528 127T646 362L691 533L599 538L601 573H827L825 538L767
534Q748 534 739 511L715 431L670 296Q650 235 619 179Q600 143 580 116T524 57T437 7T321 -11Q304 -11 288 -10T243 -1T194 20T158 60T142 123Q142 162 157 201L284 538L201 536L202 573Z" />
<glyph unicode="V" glyph-name="V" horiz-adv-x="698" d="M199 574L449 573L453 542Q433 538 387 533Q364 531 357 509L327 383L265 137Q289 154 321 183Q329 190 349 208T377 233L614 458Q623 467 651 498T681 531L575 539L579 574L679 572L814 574V539Q770 535
760 533T737 519Q720 504 681 467T636 424L228 51L168 -16L137 -8L173 92L206 209L274 491L280 535Q258 539 223 539H199V574Z" />
<glyph unicode="W" glyph-name="W" horiz-adv-x="896" d="M200 576H237Q247 576 295 574T351 572Q368 572 407 575L406 540L356 538Q342 537 339 532T331 507L311 418L249 114L489 343L517 539L455 543L464 574H802Q802 554 799 541L737 539Q730 531 713 513T691
490T675 473T657 455T641 439T620 419T596 397T564 367L531 127Q565 157 609 205L763 376L861 479Q886 504 908 538L854 542L852 573H1012V540L957 538L900 472Q885 454 842 408Q826 391 809 373T776 339L451 -9L425 0Q451 92 458 129T483 291L276 97L171 -9L145
2L191 173L256 536Q243 541 218 541H196Q193 547 193 556Q193 563 200 576ZM690 539H590L574 420Q608 446 690 539Z" />
<glyph unicode="X" glyph-name="X" horiz-adv-x="604" d="M190 580H385L384 545H327L392 346L567 537Q542 540 524 542T497 545L501 580H673V545Q656 540 620 539L404 308L493 41L552 35V0H351V31L415 43L346 256L138 41L193 36V0Q175 1 154 2T127 3H93Q63 3 19
1L20 34L47 40Q68 45 95 49Q139 91 268 225L334 293L252 545L189 549L190 580Z" />
<glyph unicode="Y" glyph-name="Y" horiz-adv-x="625" d="M567 573L723 576L722 541L663 531L372 223L299 41Q307 40 346 38T386 35L376 0L134 1V36L216 43Q224 57 255 133Q260 149 273 176L290 219L231 535L183 543V574H367V539L308 535L322 445L356 263Q381
283 416 319L615 535L566 538L567 573Z" />
<glyph unicode="Z" glyph-name="Z" horiz-adv-x="573" d="M205 573L601 575V561L356 267L159 44H238Q255 44 285 41T322 37Q339 37 383 44T438 59Q451 67 470 91Q477 100 488 114T507 139T522 157L551 146Q548 139 531 108T512 72Q512 71 507 60T495 30T482 0L421
5L117 8L30 -1L29 12Q29 16 36 21Q45 30 47 33L70 57Q84 71 146 142T215 221Q245 255 286 301T359 384Q377 402 386 417L487 543L395 548Q322 548 274 530Q243 518 224 499T183 438L149 441Q192 536 205 573Z" />
<glyph unicode="[" glyph-name="bracketleft" horiz-adv-x="344" d="M302 654L476 651L472 627H411Q380 627 351 623L29 -197Q50 -199 67 -199H149L145 -225L-47 -227L302 654Z" />
<glyph unicode="\" glyph-name="backslash" horiz-adv-x="464" d="M208 672H256L353 -12H305L208 672Z" />
<glyph unicode="]" glyph-name="bracketright" horiz-adv-x="344" d="M77 -227L-97 -224L-93 -200H-32Q-1 -200 28 -196L350 624Q329 626 312 626H230L234 652L426 654L77 -227Z" />
<glyph unicode="^" glyph-name="asciicircum" horiz-adv-x="469" d="M317 571L525 221H480L309 507L138 221H92L303 571H317Z" />
<glyph unicode="_" glyph-name="underscore" horiz-adv-x="500" d="M-14 -75H497V-125H-14V-75Z" />
<glyph unicode="`" glyph-name="grave" horiz-adv-x="333" d="M364 441H345Q336 448 306 468T247 509T215 531Q185 554 185 575Q185 586 194 594T217 603Q232 603 249 590T275 565T302 529L364 441Z" />
<glyph unicode="a" glyph-name="a" horiz-adv-x="427" d="M372 365L405 355L391 309L307 102Q297 76 297 57Q297 44 308 44Q312 44 321 46T352 60T394 92L415 79Q388 42 343 20T268 -3Q233 -3 233 25Q233 44 246 81Q230 71 199 38Q160 -3 106 -3Q74 -3 62 19Q52
34 43 63T33 120Q33 167 66 224T173 321Q243 358 284 358Q304 358 319 343L344 315L372 365ZM258 123L311 262Q297 281 290 290T273 306T251 314Q205 314 150 263T95 139Q95 132 96 121T101 92T112 63T131 51Q169 51 258 123Z" />
<glyph unicode="b" glyph-name="b" horiz-adv-x="396" d="M165 643L231 650Q277 659 292 663L316 662Q278 566 243 482T202 385L167 298Q194 323 208 335T245 356T292 366T332 355T354 327T363 296T366 268Q366 195 320 130T212 31T100 -4Q94 -4 87 -3T65 3T41
22T32 57Q32 114 86 248L225 588Q230 600 230 603Q230 615 191 615H159L165 643ZM261 319Q212 319 170 268Q147 240 121 176T94 76Q94 61 105 48T136 35Q186 35 246 103T306 256Q306 279 296 299T261 319Z" />
<glyph unicode="c" glyph-name="c" horiz-adv-x="323" d="M252 97L273 83Q215 -5 146 -5Q32 -5 32 112Q32 152 52 196T90 264T129 308Q186 371 262 371Q288 371 307 358T327 316Q327 272 291 272Q273 272 263 283T253 309Q253 321 256 326Q258 332 258 334Q258
340 249 340Q216 340 183 312T122 236T94 138Q94 95 115 71T165 47Q207 47 252 97Z" />
<glyph unicode="d" glyph-name="d" horiz-adv-x="438" d="M368 625L453 644Q454 644 469 650T485 656Q497 656 497 640Q497 635 495 629L334 175L305 73Q303 64 307 60Q310 55 318 55Q339 55 385 94L405 80Q380 46 347 22T284 -3Q265 -3 253 9T240 40Q240 53 249
85L225 66Q222 64 205 49T183 31Q140 -3 100 -3Q29 -3 29 91Q29 193 146 302Q175 329 217 347T276 365Q294 365 321 331Q335 355 345 385L356 419L418 595L363 596L368 625ZM142 51Q160 51 199 77T249 125Q263 151 279 201T295 274Q295 284 293 294T281 316T254
328Q206 328 150 247T93 97Q93 51 142 51Z" />
<glyph unicode="e" glyph-name="e" horiz-adv-x="354" d="M286 117L306 103Q245 -7 139 -7Q87 -7 60 26T33 101Q33 163 71 228T163 335T261 376Q288 376 304 360T321 318Q321 289 299 255T233 197Q205 183 107 158Q101 131 101 119Q101 46 165 46Q223 46 286 117ZM124
224L111 185Q174 204 195 217Q259 257 259 309Q259 339 235 339Q219 339 197 324T156 283Q133 253 124 224Z" />
<glyph unicode="f" glyph-name="f" horiz-adv-x="281" d="M212 361H300L290 321L203 319L142 15Q117 -112 54 -178T-67 -245Q-96 -245 -117 -231T-139 -197Q-139 -183 -125 -171T-95 -159Q-75 -159 -68 -186Q-63 -208 -45 -208Q-12 -208 10 -181Q27 -161 42 -126T62
-63L134 319L67 317L74 356L143 360Q160 421 172 454T214 536T287 620Q320 648 348 660T422 672Q448 672 474 661T500 623Q500 603 486 589T451 574Q434 574 411 587Q428 610 428 622Q428 633 419 639T398 645Q338 645 285 559T212 361Z" />
<glyph unicode="g" glyph-name="g" horiz-adv-x="438" d="M168 100L139 105Q71 67 71 38Q71 19 96 19Q105 19 152 23T208 28Q226 28 243 26T281 16T316 -8T330 -50Q330 -123 250 -184T64 -245Q-38 -245 -38 -170Q-38 -118 10 -85L76 -41Q64 -39 57 -37T39 -24T29
7Q29 37 44 61T75 95T115 120Q78 154 78 211Q78 290 131 335T251 381Q280 381 302 370T333 348T353 320Q377 381 417 381Q449 381 449 348Q449 312 433 312Q430 312 417 317T401 322Q367 322 361 258Q353 175 290 133T168 100ZM239 354Q197 354 171 313T144 217Q144
181 156 153T196 125Q238 125 266 167T295 274Q295 354 239 354ZM172 -32L116 -40Q112 -44 77 -72T34 -107Q13 -128 13 -153Q13 -184 36 -201T93 -218Q160 -218 214 -172T268 -79Q268 -47 238 -37T172 -32Z" />
<glyph unicode="h" glyph-name="h" horiz-adv-x="427" d="M173 623L265 636Q272 637 296 646H315L162 245Q175 256 207 286T253 327Q287 356 324 356Q352 356 363 337T375 302Q375 282 357 232L333 166L299 86Q288 60 288 49Q288 39 298 39Q320 39 394 94L407
78Q387 56 372 44Q310 -7 262 -7Q247 -7 236 3T224 29Q224 51 231 65L309 264Q315 285 315 294Q315 310 302 310Q280 310 230 271T156 199Q135 170 92 55Q88 44 86 38Q79 18 71 9T46 0Q21 0 21 15Q21 21 25 30L227 574Q231 583 231 586Q231 592 217 593Q185 596
170 596Q169 599 169 607Q169 612 173 623Z" />
<glyph unicode="i" glyph-name="i" horiz-adv-x="250" d="M237 632Q255 632 268 618T281 585Q281 565 266 549T228 533Q210 533 200 550T189 583T203 615T237 632ZM199 374H222L139 167Q109 98 109 64Q109 52 119 52Q132 52 148 59T175 74T214 102L231 85Q177
36 145 16T79 -4Q60 -4 47 5T33 32Q33 52 43 77L107 238Q125 286 125 303Q125 311 115 311Q112 311 96 310T78 308H57L62 332Q149 354 199 374Z" />
<glyph unicode="j" glyph-name="j" horiz-adv-x="240" d="M212 633Q251 633 251 596Q251 575 240 560T206 545Q185 545 174 556T163 583Q163 603 176 618T212 633ZM201 369L223 371L82 -54Q52 -140 11 -173Q-47 -221 -173 -248V-220Q-101 -194 -73 -178T-18 -125Q18
-77 89 155L128 296L48 289L53 319Q96 324 201 369Z" />
<glyph unicode="k" glyph-name="k" horiz-adv-x="427" d="M166 633L230 636Q236 636 290 646H317L168 250Q282 330 303 343Q347 369 386 369T425 334Q425 316 411 305T377 294Q368 294 351 299Q329 305 320 305Q306 305 291 299T267 285T237 262L257 150Q273 62
307 38Q319 29 332 23T353 14T373 9T389 7T404 7H413L402 -19H366Q327 -19 288 -6T233 29Q215 56 199 146Q197 158 193 178T186 221L160 204Q149 196 131 158T111 111L77 20Q67 -4 43 -4T19 10Q19 13 20 18T24 30T27 40L46 85L225 566Q229 575 229 586Q229 605
184 605H158L166 633Z" />
<glyph unicode="l" glyph-name="l" horiz-adv-x="250" d="M291 646H318L267 524L100 80Q93 73 93 49Q93 35 106 35Q145 35 205 98L224 80Q197 44 157 19T80 -7Q33 -7 33 30Q33 44 41 71L226 562Q231 576 231 578Q231 585 222 585L168 588L175 614Q220 621 291 646Z" />
<glyph unicode="m" glyph-name="m" horiz-adv-x="656" d="M191 369H214L169 251Q228 311 250 328Q305 368 345 368Q363 368 375 358T387 330Q387 309 363 238L388 270Q422 314 469 341T557 369Q581 369 598 353T615 313Q615 285 589 223L520 62Q520 61 519 58T518
52Q518 47 523 44T532 40Q537 40 546 43T575 61T613 98L632 87Q577 -6 506 -6Q456 -6 456 30Q456 48 467 77L544 267Q550 287 550 298Q550 306 544 314T522 323Q483 323 442 288T377 215T341 147L290 12Q284 -5 259 -5Q231 -5 231 12Q231 15 231 17T233 23T234
29Q239 44 254 79T270 118L328 289Q330 297 330 301Q330 319 313 319Q294 319 234 279Q203 256 173 216T135 159L71 6Q67 -5 40 -5Q35 -5 31 -5T20 0T17 12L126 287L60 277L56 299Q130 328 191 369Z" />
<glyph unicode="n" glyph-name="n" horiz-adv-x="427" d="M168 372L193 370L147 227Q199 292 218 313T259 347Q294 368 326 368Q348 368 360 355T373 316Q373 296 365 269L295 65Q293 55 293 55Q293 45 304 45Q345 45 391 113L416 99Q382 48 341 22T266 -4Q252
-4 240 4T227 29Q227 41 269 161T311 306Q311 321 296 321Q279 321 260 309T230 284T193 243Q188 236 162 206T134 172Q117 150 78 38Q69 13 61 5T31 -3Q19 -3 14 3T11 19L90 238L107 299L39 291L46 322Q125 338 168 372Z" />
<glyph unicode="o" glyph-name="o" horiz-adv-x="385" d="M138 -7Q111 -7 90 2T57 25T38 57T28 91T25 123Q25 221 96 297T243 373Q297 373 328 335T360 243Q360 146 289 70T138 -7ZM137 20Q195 20 246 108T298 270Q298 295 284 320T241 346Q207 346 179 316Q146
280 117 217T87 85Q87 80 88 73T93 52T108 29T137 20Z" />
<glyph unicode="p" glyph-name="p" horiz-adv-x="417" d="M92 22L7 -214L75 -216L70 -248H-123L-111 -221Q-74 -221 -65 -219T-50 -201Q-42 -179 -27 -137T-1 -62T19 -6L63 133L90 201Q99 224 122 301L66 299L72 327L92 333Q144 338 167 356Q181 367 187 367Q196
367 196 356Q196 350 193 339Q190 330 172 271Q191 281 243 328Q275 358 304 358Q341 358 361 326T382 256Q382 198 350 137T269 42Q244 25 210 13T158 0Q142 0 92 22ZM153 226Q117 121 117 83Q117 60 133 46T174 31Q213 31 249 68T305 156T325 248Q325 276 311
289T280 302Q261 302 239 286Q186 248 180 245Q157 234 153 226Z" />
<glyph unicode="q" glyph-name="q" horiz-adv-x="375" d="M207 55L156 26Q118 5 83 5Q55 5 39 30T23 92Q23 142 43 187T94 262T158 316T219 349T261 360Q281 360 292 345Q294 342 312 306Q329 335 342 359H370Q362 325 346 274T319 189T304 149L177 -206L244 -209L233
-240L161 -242L144 -244Q126 -245 105 -245L77 -244L46 -245L53 -216Q93 -214 102 -210T118 -188Q170 -61 207 55ZM224 95Q276 216 276 250Q276 263 267 290T239 317Q196 317 137 254T78 114Q78 104 80 93T94 69T128 56Q146 56 164 65Q168 67 193 80T224 95Z" />
<glyph unicode="r" glyph-name="r" horiz-adv-x="283" d="M45 314L109 342Q143 357 163 373Q173 380 178 380Q190 380 185 366L156 268L190 311Q208 334 217 345T243 365T277 375Q290 375 302 369T314 352Q314 344 312 332T302 307T280 297L254 302Q223 308 179
259Q153 230 128 151Q126 147 119 124T111 97L81 8Q76 -6 47 -6Q33 -6 29 0T26 14L110 279L111 302L49 290L45 314Z" />
<glyph unicode="s" glyph-name="s" horiz-adv-x="305" d="M262 273Q247 283 239 302Q227 331 202 331Q183 331 168 316T153 283Q153 262 191 204Q215 167 226 140Q235 119 235 102Q235 63 198 32T102 0Q57 0 27 22T-4 70Q-4 89 8 103T37 117Q50 117 58 106T66
77Q66 75 64 63T62 48Q62 39 74 33T103 27Q138 27 157 47T176 89Q176 104 170 117T140 163Q98 221 98 257Q98 303 137 332T219 362Q249 362 273 344T297 304Q297 290 287 281T269 272Q264 272 262 273Z" />
<glyph unicode="t" glyph-name="t" horiz-adv-x="260" d="M174 418L222 416Q209 377 199 344L273 347L277 316Q256 308 228 308Q214 308 188 306L105 77Q103 69 103 64Q103 47 121 47Q158 47 210 90H233Q232 88 230 85Q213 56 195 42Q141 -1 86 -1Q60 -1 49 11T37
38Q37 55 55 104Q101 225 115 268L128 307L88 306Q72 306 72 319Q72 330 81 343L140 346Q161 396 174 418Z" />
<glyph unicode="u" glyph-name="u" horiz-adv-x="438" d="M191 371L217 368Q208 352 158 216Q141 171 132 145T122 116Q111 89 111 69Q111 46 133 46T196 79T260 138Q282 165 300 214L342 326Q354 358 382 358H389Q409 358 409 342Q409 331 397 299T369 234T352
196L305 70Q302 58 302 56Q302 46 321 46Q360 46 404 92L422 77Q393 33 354 14T284 -5Q263 -5 250 5T237 30Q237 42 248 71Q256 91 260 105Q185 31 159 12T95 -7Q75 -7 63 1T48 19T45 38Q45 63 54 91L124 307H56L59 334Q103 334 136 345Q165 355 191 371Z" />
<glyph unicode="v" glyph-name="v" horiz-adv-x="396" d="M188 210L177 88Q238 140 288 200T338 286Q338 288 337 304T335 322Q335 349 351 362T380 375Q391 375 398 368T405 349Q405 320 382 278T341 214T308 176L242 109L163 41Q132 17 103 -12L84 3Q117 58
125 97T133 251Q133 282 130 298T123 319T112 323Q98 323 88 312T46 260L25 268Q87 376 144 376Q191 376 191 300Q191 246 188 210Z" />
<glyph unicode="w" glyph-name="w" horiz-adv-x="562" d="M290 -8L276 7Q275 8 275 11Q275 16 286 33Q289 40 291 55T294 82V94Q294 123 287 186Q252 145 217 110Q162 55 114 -5H82Q97 22 101 37T105 90Q105 152 107 184Q114 275 114 309Q114 326 103 326Q96 326
83 311Q76 302 42 248L22 261Q82 377 136 377Q173 377 173 318Q173 300 165 205T157 93Q185 116 206 138T287 231L285 267Q279 313 279 322Q279 346 299 360T332 374T354 358T363 329T336 264Q338 240 347 146Q349 121 348 90Q352 92 369 106T410 143T446 182Q464
208 475 235T490 281T500 338Q502 354 504 360T510 372T524 378Q552 378 552 343Q552 297 513 230T419 112L320 18Q311 9 290 -8Z" />
<glyph unicode="x" glyph-name="x" horiz-adv-x="469" d="M391 102L409 92Q383 42 349 18T292 -7Q271 -7 263 6T243 63Q238 82 220 140Q115 28 77 5Q57 -6 32 -6Q3 -6 3 34Q3 82 22 82Q32 82 56 70Q69 62 74 62Q105 62 211 168L193 249Q177 312 160 312Q151 312
125 293T92 267L75 283Q150 361 188 361Q199 361 207 357T221 342T232 321T241 291T248 257T256 215Q334 302 368 331T434 361Q472 361 472 324Q472 308 462 297T435 285Q422 285 414 299Q406 316 400 316Q387 316 347 276Q304 229 265 185Q279 126 292 92T322
58Q340 58 391 102Z" />
<glyph unicode="y" glyph-name="y" horiz-adv-x="427" d="M179 3L137 222Q136 226 132 249T126 276Q119 302 108 302Q98 302 81 278Q77 273 64 248T49 222H23Q27 263 65 315T141 368Q169 368 183 291L202 182Q208 147 219 96L223 76Q225 80 237 100T252 125Q255
130 278 175T306 228Q350 307 374 338T419 370Q441 370 441 350Q441 337 435 330T403 303Q372 280 338 222L188 -38Q169 -72 130 -125T67 -197Q9 -243 -55 -243Q-82 -243 -108 -228T-134 -180Q-134 -159 -120 -147T-91 -135Q-76 -135 -68 -146T-59 -170Q-59 -178
-63 -188T-68 -201Q-68 -212 -47 -212Q-1 -212 35 -182T132 -68Q135 -63 155 -33T179 3Z" />
<glyph unicode="z" glyph-name="z" horiz-adv-x="313" d="M309 367L331 355Q303 309 273 275L108 89Q184 39 184 -21Q184 -36 175 -90Q166 -147 166 -161Q166 -188 183 -204T219 -221Q243 -221 282 -205L291 -229Q253 -248 222 -248Q174 -248 140 -219T106 -158Q106
-155 116 -81T126 10Q126 35 115 50T88 66Q71 66 64 42Q57 20 42 20Q36 20 30 25T24 39Q24 50 30 60T42 75T65 93Q76 99 128 153Q179 206 256 307Q197 293 150 293Q134 293 123 294Q121 294 111 295T99 296Q92 296 80 280Q78 277 72 271L48 279Q65 308 118 372Q166
342 213 342Q241 342 309 367Z" />
<glyph unicode="{" glyph-name="braceleft" horiz-adv-x="480" d="M449 -227V-244Q363 -232 314 -176T265 -56Q265 -22 276 22Q288 70 288 98Q288 128 262 160T176 201V221Q235 229 261 262T288 324Q288 336 286 352T280 383T276 400Q265 447 265 478Q265 541
313 597T449 666V649Q406 638 384 622Q339 591 339 536Q339 523 341 506T347 473T351 456Q362 415 362 380Q362 365 357 347T339 303T294 253T217 212Q289 185 325 138T362 42Q362 10 351 -34Q351 -36 348 -51T342 -83T339 -114Q339 -168 384 -199Q409 -216 449
-227Z" />
<glyph unicode="|" glyph-name="bar" horiz-adv-x="480" d="M277 750H331V-250H277V750Z" />
<glyph unicode="}" glyph-name="braceright" horiz-adv-x="480" d="M137 650V667Q223 655 272 599T321 479Q321 445 310 401Q298 353 298 325Q298 295 324 263T410 222V202Q351 194 325 161T298 99Q298 87 300 71T306 40T310 23Q321 -24 321 -55Q321 -118 273
-174T137 -243V-226Q180 -215 202 -199Q247 -168 247 -113Q247 -100 245 -83T239 -50T235 -33Q224 8 224 43Q224 58 229 76T247 120T292 170T369 211Q297 238 261 285T224 381Q224 413 235 457Q235 459 238 474T244 506T247 537Q247 590 202 622Q177 639 137 650Z"
/>
<glyph unicode="~" glyph-name="asciitilde" horiz-adv-x="667" d="M637 364H660Q659 298 624 261T538 224Q511 224 484 232T381 273Q283 314 250 314Q178 314 160 225H137Q139 264 151 293T178 335T212 355T239 364T254 365Q301 365 440 306Q514 274 547 274Q578
274 605 294T637 364Z" />
</font>
</defs>
</svg>
