<?xml version="1.0" standalone="no"?> <!DOCTYPE svg PUBLIC "-//W3C//DTD SVG 1.0//EN" "http://www.w3.org/TR/2001/REC-SVG-20010904/DTD/svg10.dtd" > <svg xmlns="http://www.w3.org/2000/svg" width="100%" height="100%">
<defs >
<font id="FournierMT-Regular" horiz-adv-x="363" ><font-face
    font-family="FournierMT-Regular"
    units-per-em="1000"
    panose-1="0 0 0 0 0 0 0 0 0 0"
    ascent="809"
    descent="-339"
    alphabetic="0" />
<missing-glyph horiz-adv-x="208" />
<glyph unicode=" " glyph-name="space" horiz-adv-x="208" />
<glyph unicode="!" glyph-name="exclam" horiz-adv-x="240" d="M131 166H103Q95 263 91 364Q90 376 81 472T72 587Q72 655 124 655Q143 655 154 640T167 613T169 588Q169 570 161 486T152 399Q139 227 131 166ZM59 48Q59 78 78 90T117 103Q144 103 162 83T181
39Q181 17 162 5T119 -8Q90 -8 75 9T59 48Z" />
<glyph unicode="&quot;" glyph-name="quotedbl" horiz-adv-x="408" d="M103 342L77 487Q66 541 66 567Q66 627 113 627Q132 627 147 614T163 574Q163 554 151 486L124 342H103ZM282 342L256 484Q244 545 244 568Q244 627 294 627Q316 627 329 613T343 575Q343
532 333 485L305 342H282Z" />
<glyph unicode="#" glyph-name="numbersign" horiz-adv-x="667" d="M45 469H206L248 669H299L256 469H471L513 669H564L522 469H622V418H512L473 227H622V177H462L420 -23H369L411 177H195L154 -23H103L145 177H45V227H155L195 418H45V469ZM461 418H246L206 228H422L461
418Z" />
<glyph unicode="$" glyph-name="dollar" horiz-adv-x="427" d="M220 587V353Q303 305 329 284Q398 232 398 161Q398 142 390 119T364 68T309 20T220 -5V-128H187V-6Q124 -4 70 24T15 87Q15 102 25 110T48 119Q67 119 93 88Q106 73 114 65T142 47T187 31V289Q185
291 116 330Q59 362 37 395T15 468Q15 553 92 598Q121 616 187 622V661H220V621Q233 620 257 615T313 598T367 567T390 521Q390 506 381 498T361 490Q346 490 335 500T305 536Q273 580 220 587ZM220 270V28Q273 33 303 66T334 141Q334 174 310 204T220 270ZM187
372V588Q131 584 101 558T71 494Q71 464 85 442Q97 424 113 414T187 372Z" />
<glyph unicode="%" glyph-name="percent" horiz-adv-x="698" d="M236 482Q236 565 222 601T177 638Q143 638 131 601T118 471Q118 331 179 331Q209 331 222 367T236 482ZM173 660Q215 660 243 640T283 589T299 534T303 487Q303 309 175 309Q142 309 118 323T81
357T62 402T53 445T51 479Q51 660 173 660ZM526 660H567L174 -46H133L526 660ZM517 305Q559 305 587 285T627 234T643 179T647 132Q647 -46 519 -46Q486 -46 462 -32T425 2T406 47T397 90T395 124Q395 305 517 305ZM580 127Q580 210 566 246T521 283Q487 283 475
246T462 116Q462 -24 523 -24Q553 -24 566 12T580 127Z" />
<glyph unicode="&amp;" glyph-name="ampersand" horiz-adv-x="750" d="M605 365H520L526 400Q535 399 553 399Q563 398 580 398L628 399L666 398Q677 398 698 398T726 399L719 362L638 363Q607 303 567 246T496 161Q566 76 605 53T716 21Q718 13 718 11Q718 -2
713 -10Q637 -1 601 -1Q566 -1 526 -7Q498 30 438 105Q367 46 320 19T221 -8Q143 -8 93 51T42 176Q42 249 93 290Q117 309 195 339Q166 364 150 396T133 455Q133 503 176 543T284 584Q344 584 387 550T430 466Q430 446 421 422T394 384Q372 370 301 351Q408 270
474 187Q505 212 546 269T605 365ZM274 371Q314 379 337 401T366 441T372 477Q372 513 351 533T289 554Q247 554 222 532T197 485Q197 480 197 476T202 458T213 432T236 402T274 371ZM326 227L218 317Q168 303 128 271Q106 254 106 220Q106 169 155 112T269 55T417
129Q357 201 326 227Z" />
<glyph unicode="&apos;" glyph-name="quotesingle" horiz-adv-x="180" d="M79 342L52 486Q41 546 41 568Q41 627 88 627Q109 627 124 614T139 575Q139 555 126 486L100 342H79Z" />
<glyph unicode="(" glyph-name="parenleft" horiz-adv-x="333" d="M280 575Q195 498 155 421T114 228Q114 158 128 100T172 -8T228 -90T299 -170Q309 -180 309 -187T301 -201T287 -209Q279 -209 257 -192T200 -138T139 -57Q58 72 58 220Q58 426 204 568Q272 634
295 634Q310 634 310 613Q310 605 306 599T280 575Z" />
<glyph unicode=")" glyph-name="parenright" horiz-adv-x="333" d="M53 -150Q139 -74 179 4T219 197Q219 267 205 325T161 433T105 515T34 595Q24 605 24 612T32 626T46 634Q54 634 76 617T133 563T194 482Q275 353 275 205Q275 -1 129 -143Q61 -209 38 -209Q23
-209 23 -188Q23 -180 27 -174T53 -150Z" />
<glyph unicode="*" glyph-name="asterisk" horiz-adv-x="333" d="M150 640H184Q187 620 195 527Q275 560 304 569L317 538Q265 500 218 474Q248 455 321 405L297 375Q287 380 242 401T195 422Q195 412 182 305H148Q139 387 137 425Q88 401 28 376L12 403Q35 422
109 472Q66 504 20 545L35 571Q81 552 136 524Q136 527 150 640Z" />
<glyph unicode="+" glyph-name="plus" horiz-adv-x="667" d="M70 337H307V574H360V337H597V284H360V47H307V284H70V337Z" />
<glyph unicode="," glyph-name="comma" horiz-adv-x="240" d="M63 -206L57 -186Q156 -114 156 -52Q156 -11 104 -7Q75 -5 62 5T49 37Q49 60 66 72T105 85Q143 85 170 51T197 -21Q197 -60 166 -114T63 -206Z" />
<glyph unicode="-" glyph-name="hyphen" horiz-adv-x="333" d="M56 225H277Q298 225 298 210V183Q298 160 276 160H55Q35 160 35 175V210Q35 225 56 225Z" />
<glyph unicode="." glyph-name="period" horiz-adv-x="240" d="M119 104Q143 104 161 89T179 50Q179 25 161 11T119 -4T79 10T61 47Q61 71 77 87T119 104Z" />
<glyph unicode="/" glyph-name="slash" horiz-adv-x="531" d="M412 673H465L119 -7H66L412 673Z" />
<glyph unicode="0" glyph-name="zero" horiz-adv-x="415" d="M203 627Q261 627 302 583T363 469T382 311Q382 252 372 198T342 97T289 23T211 -5Q164 -5 128 22T72 96T43 194T33 305Q33 380 47 447T85 551Q110 590 141 608T203 627ZM302 339Q302 452 290 501T253
576Q235 594 208 594Q177 594 158 574Q133 548 123 496T113 296Q113 118 147 64Q169 28 209 28Q245 28 270 64Q290 92 296 143T302 339Z" />
<glyph unicode="1" glyph-name="one" horiz-adv-x="415" d="M224 624H245V49Q245 33 255 31Q256 31 267 30T291 28T307 26V0Q209 2 111 0V26Q158 27 167 32T176 62V509Q176 544 160 550Q158 551 136 555T112 560V583Q187 605 224 624Z" />
<glyph unicode="2" glyph-name="two" horiz-adv-x="415" d="M367 114H391L374 0H36Q36 1 36 5T35 12Q35 22 40 29T69 63Q158 161 217 269T277 459Q277 496 255 524T181 553Q142 553 122 537T74 478L50 491Q63 518 72 533T101 573T151 611T219 624Q287 624 318
582T350 479Q350 431 327 375T235 218Q213 186 116 64Q158 62 196 62Q264 62 301 70T347 86T367 114Z" />
<glyph unicode="3" glyph-name="three" horiz-adv-x="415" d="M41 -3L31 23Q99 20 150 33T228 68T271 115T292 159T296 190Q296 296 127 319Q142 335 201 389Q259 450 259 498Q259 509 254 522T231 550T185 565Q119 565 58 496L32 508Q58 546 76 567T129 607T207
626Q268 626 300 597T332 517Q332 471 308 440T226 369Q274 360 306 339T352 290T369 245T373 208Q373 151 343 107T267 39T176 5T89 -7Q53 -7 41 -3Z" />
<glyph unicode="4" glyph-name="four" horiz-adv-x="415" d="M284 626H310V230H387V178H312V17Q312 8 311 4T306 -4T293 -7H266Q253 -7 249 -2T244 15V178H96Q89 178 24 173V195L284 626ZM243 230V500L81 230H243Z" />
<glyph unicode="5" glyph-name="five" horiz-adv-x="415" d="M326 635L352 636Q351 576 332 556T268 535Q260 535 219 537T170 539Q132 539 97 536L88 379Q139 390 173 390Q263 390 318 340T374 215Q374 198 370 179T354 130T309 70T229 21Q149 -12 57 -5L43 22Q167
17 232 70T297 193Q297 241 264 278T158 315L111 311Q77 301 51 295L73 611Q103 613 126 613Q138 613 198 611T269 609Q299 609 310 614T326 635Z" />
<glyph unicode="6" glyph-name="six" horiz-adv-x="415" d="M353 628L381 598Q246 499 182 402Q111 297 111 199Q111 125 137 74T215 22Q306 22 306 161Q306 235 285 263T218 308Q202 315 202 325Q202 332 207 337Q218 344 251 344Q266 344 282 340T324 324T366
277T383 192Q383 105 331 49T216 -8Q141 -8 89 57T36 206Q36 271 61 332T119 436T201 521T282 584T353 628Z" />
<glyph unicode="7" glyph-name="seven" horiz-adv-x="415" d="M391 620V605L226 162Q199 88 153 -6L120 10Q173 128 196 196L319 542H257Q249 542 206 544T156 546Q96 546 87 534Q74 521 61 469H32Q44 559 51 598Q53 605 54 608T58 614T63 616T74 618Q104 620
157 620Q166 620 215 619T273 618Q283 618 333 619T391 620Z" />
<glyph unicode="8" glyph-name="eight" horiz-adv-x="415" d="M159 298Q94 350 69 386T43 472Q43 541 89 583T203 625Q270 625 316 588T363 486Q363 449 345 417T305 367T248 326Q318 275 349 237T381 145Q381 78 329 36T202 -7Q133 -7 86 30T39 129Q39 172 66
209T159 298ZM220 346Q266 377 283 416T301 484Q301 529 273 562T202 595Q157 595 132 564T107 494Q107 451 136 418T220 346ZM185 280Q142 244 123 201T103 129Q103 90 130 57T207 23Q255 23 283 57T311 128Q311 190 185 280Z" />
<glyph unicode="9" glyph-name="nine" horiz-adv-x="415" d="M95 -7L70 17Q149 89 197 145T269 247T298 326T305 403Q305 480 272 536T184 593Q149 593 126 565T102 480Q102 426 120 385T179 334Q180 334 200 330T224 324Q230 320 230 309Q230 295 215 289Q193
283 163 283Q101 283 67 324T33 431Q33 509 78 569T198 629Q281 629 329 567T378 410Q378 279 279 156Q208 67 95 -7Z" />
<glyph unicode=":" glyph-name="colon" horiz-adv-x="240" d="M119 375Q143 375 161 360T179 321Q179 296 161 282T119 267T79 281T61 318Q61 342 77 358T119 375ZM119 104Q143 104 161 89T179 50Q179 25 161 11T119 -4T79 10T61 47Q61 71 77 87T119 104Z" />
<glyph unicode=";" glyph-name="semicolon" horiz-adv-x="240" d="M35 -182V-159Q57 -146 72 -136T107 -108T139 -73T150 -37T139 -11T103 -1Q75 3 64 12T52 44Q52 93 110 93Q145 93 171 69T197 -1Q197 -58 153 -107T35 -182ZM119 375Q143 375 161 360T179 321Q179
296 161 282T119 267T79 281T61 317Q61 342 77 358T119 375Z" />
<glyph unicode="&lt;" glyph-name="less" horiz-adv-x="667" d="M597 558V500L140 311L597 123V66L70 288V335L597 558Z" />
<glyph unicode="=" glyph-name="equal" horiz-adv-x="667" d="M70 453H597V400H70V453ZM70 226H597V173H70V226Z" />
<glyph unicode="&gt;" glyph-name="greater" horiz-adv-x="667" d="M70 558L597 335V288L70 66V123L527 311L70 500V558Z" />
<glyph unicode="?" glyph-name="question" horiz-adv-x="410" d="M130 184H100Q91 282 91 339Q91 368 101 374T155 382Q249 390 255 392Q278 402 278 442Q278 455 273 474T246 521T188 562Q185 563 163 570T137 579Q106 594 106 618Q106 652 148 652Q198 652 239
610T300 510T321 398Q321 323 290 316Q283 314 217 309T140 298Q129 293 129 271L130 184ZM117 103Q148 103 163 87T178 46Q178 21 162 5T119 -11Q95 -11 77 3T58 45Q58 75 78 89T117 103Z" />
<glyph unicode="@" glyph-name="at" horiz-adv-x="921" d="M678 434L621 240Q576 86 576 54Q576 43 585 30T612 17Q641 17 675 37T734 87Q819 188 819 335Q819 466 732 551T503 636Q409 636 329 596T196 489T114 340T84 171Q84 -3 192 -111T466 -219Q542 -219
611 -196T749 -109T859 51H887Q856 -46 788 -115T636 -217T464 -249Q282 -249 160 -127T38 184Q38 285 75 374T175 526T322 625T500 661Q586 661 654 633T764 557T827 450T849 326Q849 281 839 234T805 141T751 61T675 4T579 -18Q505 -18 505 49Q505 78 513 120Q491
93 475 76T432 33T377 -5T321 -19Q279 -19 256 17T233 95Q233 169 277 250T384 384T501 437Q539 437 564 414Q578 400 586 370L602 424L678 434ZM507 414Q463 414 415 355T339 225T310 110Q310 83 325 62T366 40Q408 40 447 79T515 162Q535 193 551 250T568 344Q568
373 552 393T507 414Z" />
<glyph unicode="A" glyph-name="A" horiz-adv-x="656" d="M321 583L526 89Q543 48 555 43Q561 40 603 35L625 33V1H581Q564 1 537 4Q503 6 494 6Q455 6 378 2V33L408 34Q431 35 442 37T455 42T457 50Q457 60 447 85L403 195Q349 197 184 195Q153 122 143 95Q126
46 126 41Q126 37 128 36T144 33H145L186 28V0L150 2Q115 3 104 3Q94 3 86 3T57 2T11 0V30L40 31Q67 32 76 40T98 77Q220 377 300 583H321ZM386 236L288 467L198 233Q230 231 261 231Q356 231 386 236Z" />
<glyph unicode="B" glyph-name="B" horiz-adv-x="563" d="M234 0H45V24Q107 31 121 43L119 540H67Q51 540 48 545T45 570Q87 572 175 572Q243 576 283 576Q305 576 326 574T378 564T431 541T469 499T485 435Q485 388 459 361T383 305Q410 292 428 281T467 252T497
209T508 152Q508 114 490 84T454 41T417 21Q367 0 234 0ZM202 538V307Q240 306 266 307T320 314T364 331T392 364T403 415Q403 471 369 508T265 546Q231 546 202 538ZM202 33H252Q322 33 360 47T410 84T422 145Q422 282 264 282Q238 282 202 279V33Z" />
<glyph unicode="C" glyph-name="C" horiz-adv-x="656" d="M606 437H576Q561 463 551 477T519 513T467 544T396 555Q337 555 289 528T214 458T173 370T158 283Q158 181 224 105T399 29Q439 29 481 43T541 82Q557 104 572 147L601 148L595 52Q489 -7 379 -7Q243
-7 154 78T65 287Q65 363 95 422T174 515T280 566T396 583Q494 583 582 547Q604 450 606 437Z" />
<glyph unicode="D" glyph-name="D" horiz-adv-x="729" d="M36 0V23L37 31Q42 31 71 32T106 34Q119 35 119 41V492Q119 532 107 537Q100 539 69 540T36 541Q33 547 33 552V570Q201 575 249 575Q382 575 442 564T547 521Q602 482 633 421T665 293Q665 173 579 90Q536
48 468 24T267 0Q260 0 228 0T173 1T136 1Q97 1 36 0ZM201 511V72Q201 43 206 39Q214 33 268 33Q351 33 413 56T510 117T561 197T577 285Q577 391 499 468T271 545Q221 545 211 540T201 511Z" />
<glyph unicode="E" glyph-name="E" horiz-adv-x="563" d="M114 572L175 571Q180 571 292 572T423 574Q439 574 481 571Q485 542 485 442H459Q450 457 446 484Q439 530 419 532Q324 542 249 542Q210 542 203 540T195 526Q195 518 197 474T199 423Q199 414 198 365T197
308Q233 303 258 303Q310 303 323 305T343 318Q359 341 366 388L393 393Q395 247 393 189H369Q353 244 341 262Q333 273 294 273Q226 273 197 270Q199 104 199 46Q254 42 331 42Q396 42 423 48T459 68Q474 91 489 140L521 139Q524 53 512 0Q502 0 371 3H171H123Q83
3 29 6L30 36Q56 38 84 38Q102 40 114 44Q119 86 119 449Q119 533 117 536Q113 542 68 542H41L46 570Q92 572 114 572Z" />
<glyph unicode="F" glyph-name="F" horiz-adv-x="531" d="M513 459H485Q478 500 475 510T460 527Q441 539 324 539Q227 539 197 536L198 298H315Q351 298 354 309Q356 315 360 346T365 381H394Q392 333 392 292Q392 249 398 192L367 190Q360 236 357 246T346 259Q335
265 246 265Q226 265 199 262L200 52Q200 43 203 40T213 35T237 33L285 30V0L253 1Q217 2 147 2Q95 2 31 0L29 26L97 33Q99 33 119 37L121 57L114 530Q110 531 42 545V570Q51 570 177 572T374 574Q420 574 510 571Q514 533 514 503Q514 494 514 479T513 459Z" />
<glyph unicode="G" glyph-name="G" horiz-adv-x="708" d="M568 435H545Q536 457 529 471T503 507T453 541T379 553Q322 553 279 531T212 477T175 405T158 334T154 277Q154 208 173 157T224 78T289 37T355 23Q441 26 503 72V203Q477 211 425 212V230Q425 239 428
245Q505 245 535 243L651 244L652 217Q649 216 639 215T618 213T605 211Q589 208 585 202V59Q518 20 452 6T356 -5Q307 -5 258 11T165 59T92 149T64 281Q64 358 90 417T162 512T263 565T379 583Q491 583 564 527Q571 486 571 462Q571 452 568 435Z" />
<glyph unicode="H" glyph-name="H" horiz-adv-x="708" d="M267 570L266 543Q222 540 199 533Q199 490 199 461T201 390T203 307Q237 305 308 305Q366 305 499 308Q502 350 502 390Q502 418 498 536L431 542V570Q483 570 549 570T647 571L649 541H619Q593 541 587
539T581 523Q581 509 582 437T583 352L582 52Q582 40 585 38T602 35Q608 35 650 30V2Q624 4 612 4Q597 5 550 5Q502 5 427 2L429 32L478 35Q494 36 497 38T501 51V55Q501 59 501 67T502 89T502 126T503 178Q503 197 501 273Q435 275 362 275Q269 275 203 270Q200
165 200 48Q200 43 201 41T209 36T229 32L269 28L266 0Q226 2 153 2Q134 2 94 1T49 0V29L107 34Q115 35 117 38T120 51Q121 65 121 121Q121 328 115 534Q93 543 49 542V572Q85 572 158 571T267 570Z" />
<glyph unicode="I" glyph-name="I" horiz-adv-x="333" d="M119 35Q121 245 121 371Q121 520 118 536Q110 540 95 540H38L39 570Q78 570 158 572T277 574L276 546L225 540Q207 537 204 533Q201 530 201 494Q201 211 204 68Q205 45 208 40T229 34L277 30V0Q155 3
43 0V29L119 35Z" />
<glyph unicode="J" glyph-name="J" horiz-adv-x="375" d="M158 539Q138 542 126 542L68 545L71 570Q146 575 276 575H308L307 548L271 545Q243 543 235 541Q235 528 236 464T239 297T240 90Q240 -64 208 -125Q193 -154 162 -174T97 -195Q62 -195 38 -174T13 -131Q13
-118 22 -107T52 -95Q86 -95 98 -135Q107 -162 122 -162Q158 -162 158 -82V539Z" />
<glyph unicode="K" glyph-name="K" horiz-adv-x="656" d="M265 572L263 542H226Q208 542 203 538T197 518V307Q225 303 248 331L412 531L351 543L352 571L547 572V542L458 531L284 326L529 68Q551 45 564 40T628 25V2H539Q505 2 483 3L367 1V34H394Q417 34 447
40Q440 48 426 65T400 94T381 115L235 267Q222 281 198 278V64Q198 38 206 35Q210 35 216 35T230 35T239 36H255Q257 36 273 34L271 1Q163 4 42 0L41 30L84 31Q111 33 116 35Q118 41 118 55V501Q118 525 116 533Q116 534 111 537L45 544L42 570Q52 573 74 573Q79
573 103 572T132 571Q140 571 181 572T230 573Q252 573 265 572Z" />
<glyph unicode="L" glyph-name="L" horiz-adv-x="563" d="M200 40H327Q428 40 450 53Q467 63 489 130L512 129Q516 109 516 87V4Q495 1 478 1Q473 1 441 3Q432 3 419 3T405 4Q394 4 342 2Q288 0 280 0Q271 0 225 2T172 4Q132 4 32 0L35 31Q77 34 120 40Q123 85
123 109Q123 118 123 137T122 165Q122 231 121 293L120 412Q120 420 121 459T122 506Q122 529 118 532Q117 533 87 538L45 543L47 573Q146 570 161 570Q212 570 280 574L277 544L222 540Q204 538 202 533Q200 529 200 501V40Z" />
<glyph unicode="M" glyph-name="M" horiz-adv-x="750" d="M693 572V540L635 536Q622 536 622 519L628 41Q679 31 702 30L703 0H598Q595 0 579 0T531 2T471 4V34L546 39L544 462Q414 160 385 82Q368 45 361 -6H337Q316 68 286 140L144 483V37L209 27L206 0H40L41
27L106 36Q110 138 110 198Q110 301 111 345Q115 517 115 519Q115 532 111 536Q106 539 42 539L41 571L155 572Q157 573 169 573T184 572Q190 564 253 417Q307 291 371 147Q441 298 485 406Q542 546 556 569Q572 571 580 571L693 572Z" />
<glyph unicode="N" glyph-name="N" horiz-adv-x="708" d="M540 538L457 541L455 571L653 573V543L572 540Q578 341 578 -3H552Q387 214 168 465L178 39Q186 38 267 31L263 0H55L54 31Q64 36 74 36Q124 36 140 39Q140 248 132 503L106 537Q80 538 47 538V571Q50
571 63 571T89 570T112 571Q153 575 186 573Q485 216 547 139Q541 481 540 538Z" />
<glyph unicode="O" glyph-name="O" horiz-adv-x="740" d="M383 583Q514 583 595 501T677 303Q677 177 583 86Q485 -7 356 -7Q237 -7 150 65T63 261Q63 402 162 492T383 583ZM378 553Q315 553 268 530T194 469T156 388T143 301Q143 206 199 125Q271 23 376 23Q458
23 525 93T592 290Q592 409 524 484Q462 553 378 553Z" />
<glyph unicode="P" glyph-name="P" horiz-adv-x="563" d="M49 572H152Q156 572 179 573T216 576Q270 578 278 578Q390 578 449 528Q509 478 509 400Q509 325 449 274T305 223Q264 223 200 237V35Q214 33 270 26L271 0L133 2Q79 2 42 0L44 30Q91 29 117 35V535Q86
539 48 541L49 572ZM197 541L201 265Q236 255 265 255Q340 255 383 295T427 397Q427 464 388 504Q346 547 258 547Q219 547 197 541Z" />
<glyph unicode="Q" glyph-name="Q" horiz-adv-x="740" d="M725 -72L737 -101Q625 -170 512 -170Q475 -170 440 -156T390 -131T367 -110Q340 -80 314 2Q247 9 196 38T118 110T77 196T63 286Q63 414 157 497T382 583Q512 581 595 503T679 296Q679 162 583 81Q554
57 519 40T465 17T411 3Q416 -52 460 -87T559 -122Q631 -122 725 -72ZM372 550Q327 550 291 536T231 499T192 449T168 392T157 340T154 296Q154 176 222 106T380 36Q468 36 528 112T589 300Q589 418 526 483T372 550Z" />
<glyph unicode="R" glyph-name="R" horiz-adv-x="626" d="M588 30H607V1Q574 -2 550 -2Q504 -2 474 11T430 51T411 100T404 156Q400 221 375 251T269 282Q230 282 200 279V34H276V1H44Q43 11 43 17T46 27T59 31L120 34Q120 396 117 535L36 542L32 572L170 570Q180
570 226 572Q250 573 281 573Q348 573 386 563T452 529Q499 490 499 428Q499 326 365 293Q393 289 426 263T468 213Q475 195 489 140T511 72Q526 47 540 40T588 30ZM204 535L199 311Q223 309 232 309Q269 309 288 310T335 316T376 333T400 367T411 421Q411 486
373 514T282 543Q236 543 204 535Z" />
<glyph unicode="S" glyph-name="S" horiz-adv-x="469" d="M372 457L350 458Q344 477 339 488T321 517T286 544T232 553Q180 553 152 528T124 468Q124 434 147 411T236 351Q316 306 356 273T406 216T417 156Q417 81 364 39T224 -4Q194 -4 170 1T134 13T101 32Q79
21 55 23Q50 73 49 140L77 138Q89 113 97 99T121 65T162 36T220 26Q275 26 313 54T351 126Q351 164 317 198T201 278Q129 317 94 352T59 441Q59 504 106 543T227 583Q285 583 378 547Q379 507 372 457Z" />
<glyph unicode="T" glyph-name="T" horiz-adv-x="656" d="M616 568V438H587Q586 439 577 467T564 501Q555 514 545 520T499 532T393 537Q380 537 366 535V38Q370 38 394 37T423 35Q436 32 442 29L441 0H231Q216 0 198 4L201 36L286 39V532Q245 539 177 539Q123
539 106 522Q97 513 76 438H45V571Q216 573 284 572Q312 570 347 570Q360 570 426 571T503 572Q554 572 616 568Z" />
<glyph unicode="U" glyph-name="U" horiz-adv-x="708" d="M653 570L651 540H602Q589 539 586 537T583 527L584 491Q586 455 586 448Q586 429 586 409T586 375T587 361Q587 168 575 127Q558 67 498 30T358 -7Q291 -7 239 17T163 80Q131 130 131 274Q131 287 132
355T133 434L132 520Q132 527 131 529T125 534T109 536L62 537V570H164Q173 570 217 570T283 571L284 541L229 535Q218 534 216 531T213 515V224Q213 129 261 85T378 40Q461 40 510 89Q532 111 541 146T551 253Q551 409 542 525Q541 536 540 538T533 540L490 541Q487
541 479 541T466 540L464 570Q555 571 653 570Z" />
<glyph unicode="V" glyph-name="V" horiz-adv-x="656" d="M268 572L264 542L211 539Q190 539 190 528Q190 519 194 511L356 114Q359 123 514 538L432 540L427 570H519Q570 570 620 573V540L569 539Q560 538 551 536Q547 531 538 504L424 203Q371 60 360 36Q347
4 345 -10H319Q258 133 114 488Q95 534 91 536Q83 540 62 540H28V572Q40 573 69 573Q75 573 113 571Q132 570 157 570H162Q167 571 176 571T194 572Q205 572 223 572T244 573Q249 573 257 573T268 572Z" />
<glyph unicode="W" glyph-name="W" horiz-adv-x="938" d="M447 300L342 536Q290 542 281 544L284 572Q318 572 369 571T444 570Q471 570 565 572Q585 572 608 573T647 574T668 575L674 542L602 540Q590 521 584 507L515 351L628 113L787 523Q768 541 732 544L734
574Q754 574 776 574T813 574L827 573H900L899 543L856 535Q839 532 834 528T821 504Q781 413 753 347T714 252T686 180T661 115L613 -9H591Q531 148 471 260Q385 88 372 59Q365 44 360 31T351 7T345 -9H320Q306 42 289 83T203 274Q184 314 163 364T128 450T113
488Q97 531 92 533Q91 534 89 534L31 543L34 574L241 571L238 540Q225 536 181 530Q290 269 360 117Q381 149 408 204T447 300ZM553 535Q525 539 431 539Q454 467 494 390Q537 473 553 535Z" />
<glyph unicode="X" glyph-name="X" horiz-adv-x="708" d="M241 0H60V30H83Q127 30 137 40Q141 44 209 134L315 281L149 488Q146 491 131 509T114 529Q101 542 93 544T55 547H31V583H273L270 547H204L363 344Q469 478 507 547H451V583H627L626 547H565Q527 505
485 448L387 314L607 37L678 30V0H633Q625 0 587 2Q575 2 559 2T541 3Q509 3 440 0V37H507Q500 48 452 111T357 229Q350 237 338 253L261 144Q217 84 188 36L245 30L241 0Z" />
<glyph unicode="Y" glyph-name="Y" horiz-adv-x="656" d="M517 571L623 574V544Q610 540 585 538Q563 536 547 529Q506 484 371 247L370 34L442 29V2Q384 0 339 0Q312 0 210 2V33Q261 32 287 40V231Q204 369 96 535L26 541L30 573L270 571L266 538L193 536Q305
351 352 281Q426 408 504 530Q498 531 468 538T433 547V573Q441 574 478 573T517 571Z" />
<glyph unicode="Z" glyph-name="Z" horiz-adv-x="563" d="M472 133H503Q497 43 488 2Q477 2 422 1T357 0Q254 0 212 2L52 1L253 329Q258 337 283 382T314 435Q330 460 377 537Q334 540 254 540Q215 540 193 538T154 530T128 512T112 484T98 439H70L83 572L197
570H272Q303 571 345 571Q350 571 386 571T453 570T493 571Q492 569 414 441T287 235Q234 149 169 39Q219 36 336 36Q391 36 413 42T446 66T472 133Z" />
<glyph unicode="[" glyph-name="bracketleft" horiz-adv-x="281" d="M272 652V616Q263 616 217 615T162 613Q153 612 151 608T148 590Q148 570 147 558Q147 358 146 308L145 254Q144 221 145 20T147 -185Q148 -191 173 -192Q207 -194 269 -194L272 -230H97Q81
-230 78 -217T75 -116Q75 -96 76 8T77 129L75 548Q75 626 78 639T98 652H272Z" />
<glyph unicode="\" glyph-name="backslash" horiz-adv-x="531" d="M66 673H119L465 -7H412L66 673Z" />
<glyph unicode="]" glyph-name="bracketright" horiz-adv-x="281" d="M9 -230V-194Q18 -194 64 -193T119 -191Q128 -190 130 -186T133 -168Q133 -148 134 -136Q134 64 135 114L136 168Q137 201 136 402T134 607Q133 613 108 614Q74 616 12 616L9 652H184Q200 652
203 639T206 538Q206 518 205 414T204 293L206 -126Q206 -204 203 -217T183 -230H9Z" />
<glyph unicode="^" glyph-name="asciicircum" horiz-adv-x="469" d="M243 571L451 221H406L235 507L64 221H18L229 571H243Z" />
<glyph unicode="_" glyph-name="underscore" horiz-adv-x="500" d="M-6 -75H506V-125H-6V-75Z" />
<glyph unicode="`" glyph-name="grave" horiz-adv-x="333" d="M236 472H218L112 543Q58 580 58 606Q58 620 68 627T92 634Q126 634 157 585L236 472Z" />
<glyph unicode="a" glyph-name="a" horiz-adv-x="396" d="M324 115L323 89Q321 38 344 38Q352 38 362 62L384 52Q367 -6 317 -6Q275 -6 263 36Q257 57 250 57Q246 57 229 43Q180 -4 130 -4Q93 -4 65 20T37 84Q37 138 94 180Q145 217 259 232V277Q259 304 258 318T250
345T229 364T192 370Q167 370 150 362T131 337Q130 315 122 306T87 297Q63 297 49 301Q42 304 41 312Q46 348 99 373T208 398Q248 398 277 384T314 351Q326 324 326 243Q326 171 324 115ZM258 154V199Q190 195 174 189Q140 176 122 151T104 102Q104 81 121 66T167
51Q178 51 196 55Q197 56 208 63T223 71Q241 81 254 96Q258 124 258 154Z" />
<glyph unicode="b" glyph-name="b" horiz-adv-x="458" d="M117 659H140L135 352Q186 396 244 396Q318 396 369 334T420 189Q420 136 401 95T351 31T291 -2T233 -13Q207 -13 185 -1L131 29Q124 1 115 -15Q55 -3 6 1L8 32L70 27V589Q56 591 41 591Q18 591 2 588L4
615Q5 616 29 624T54 633Q90 645 117 659ZM134 65Q162 44 177 38T216 31Q246 31 266 39T297 57T327 90Q349 118 349 185Q349 270 294 326Q267 355 221 355Q191 355 168 343T139 315Q134 301 134 65Z" />
<glyph unicode="c" glyph-name="c" horiz-adv-x="384" d="M351 100L373 87Q348 50 328 34Q274 -9 212 -9Q185 -9 157 0T100 29T53 87T35 178Q35 274 92 332T232 391Q277 391 308 374T351 340T362 310T349 287T321 275Q297 275 280 316Q269 342 258 350T219 358Q173
358 140 323T106 208Q106 130 138 93Q174 51 244 51Q293 51 327 75Q337 82 351 100Z" />
<glyph unicode="d" glyph-name="d" horiz-adv-x="469" d="M373 665H397Q392 320 392 215V42Q414 37 442 37V13L323 -11V48L251 3Q228 -11 185 -11Q124 -11 79 43T33 180Q33 272 87 330T208 389Q254 389 328 334V484Q328 532 324 580L267 595V619Q311 631 373 665ZM326
236L324 300Q277 344 233 344Q181 344 146 296T110 177Q110 110 142 73T216 35Q264 35 322 81L326 184Q327 189 327 210T326 236Z" />
<glyph unicode="e" glyph-name="e" horiz-adv-x="396" d="M369 225H105Q103 215 103 193Q103 132 146 85T246 38Q307 38 342 89L366 74Q317 -10 219 -10Q140 -10 88 45T36 185Q36 276 92 337T224 398Q304 398 341 337Q367 294 369 225ZM296 258Q296 312 284 330Q261
368 218 368Q176 368 147 337T112 258Q236 259 296 258Z" />
<glyph unicode="f" glyph-name="f" horiz-adv-x="281" d="M169 404V387Q173 387 184 386T203 384T217 383L265 384L259 345Q216 342 170 342Q167 319 167 287Q167 162 172 40H244L240 2Q198 7 155 7Q145 7 95 5Q47 3 38 3L40 37Q70 42 101 42L98 337L40 324L43
360Q58 363 64 367Q96 385 100 386Q105 479 125 530T185 623Q231 673 272 673Q308 673 340 658T372 617Q372 601 358 585T327 568Q317 568 313 573T302 596Q286 634 256 634Q238 634 220 620T192 587Q169 543 169 404Z" />
<glyph unicode="g" glyph-name="g" horiz-adv-x="469" d="M371 345L355 333Q375 290 375 258Q375 205 327 158T207 110Q176 110 141 121Q108 85 108 64Q108 30 159 33L292 37Q310 36 331 37T374 32T415 15T444 -17T456 -72Q456 -140 399 -194T232 -249Q138 -249
83 -215T27 -136Q27 -105 66 -74Q92 -53 103 -31Q89 -25 81 -20T63 0T54 34Q54 60 68 82T116 135Q45 178 45 254Q45 320 92 363T213 407Q288 407 339 353Q344 357 367 379T393 404Q410 421 427 421Q467 421 467 368Q467 357 457 350T435 343Q432 343 416 350T396
357Q384 357 371 345ZM209 382Q118 382 118 266Q118 210 143 174T212 138Q255 138 277 174T300 261Q300 319 274 350T209 382ZM307 -33L130 -37Q125 -51 122 -54Q89 -98 89 -114Q89 -128 102 -152T128 -189Q162 -219 248 -219Q322 -219 363 -184T405 -103Q405 -30
307 -33Z" />
<glyph unicode="h" glyph-name="h" horiz-adv-x="469" d="M130 672H153L150 337L219 376Q273 407 313 407Q403 407 401 253L399 37L448 30L454 1Q428 1 403 4Q386 6 351 6Q321 6 277 2Q275 9 275 14T278 31L308 34Q322 35 331 39L335 210Q337 304 328 331Q323
346 308 356T276 367Q251 367 222 349T150 294L147 36Q201 30 204 30V0Q177 1 157 2T128 3T114 4T100 4T21 1L25 28Q64 33 82 34Q85 100 85 395V593Q54 611 23 618V640Q80 646 130 672Z" />
<glyph unicode="i" glyph-name="i" horiz-adv-x="240" d="M119 612Q142 612 155 597T169 563Q169 542 155 528T120 513T85 527T71 563T86 598T119 612ZM142 406H159V36Q169 34 215 27L216 -2Q164 0 124 0T32 -2L33 27Q55 31 92 36V312L26 320V342Q70 358 90 368T142 406Z" />
<glyph unicode="j" glyph-name="j" horiz-adv-x="240" d="M120 608Q143 608 157 593T171 559Q171 539 157 524T122 509Q101 509 87 524T72 559Q72 580 87 594T120 608ZM135 403H162V-63Q162 -124 135 -154Q130 -159 115 -176T83 -211T64 -233L39 -259L16 -243Q42
-215 54 -199T81 -148T95 -75V303Q72 308 20 311V333Q71 352 92 364T135 403Z" />
<glyph unicode="k" glyph-name="k" horiz-adv-x="469" d="M134 652H155V218Q187 234 230 277T291 350L223 355L226 386H331Q354 386 362 387Q387 390 415 391V364Q345 353 340 349Q332 341 320 327Q300 303 231 234Q247 218 279 182Q284 177 307 149T333 118L394
48Q403 37 411 35Q413 34 435 32T459 29V1Q441 2 377 3Q344 6 335 6Q291 6 254 5L255 37L315 39Q308 46 294 64Q220 160 189 179Q188 179 184 182T175 188L171 190Q168 191 153 191Q156 140 154 40Q176 35 189 35H214L211 3L92 6Q60 6 20 2V30Q37 36 91 46Q91 88
92 174T94 303V331Q94 345 93 415T92 498Q92 548 90 573L17 575L20 602Q64 612 134 652Z" />
<glyph unicode="l" glyph-name="l" horiz-adv-x="240" d="M130 670L154 671V38L209 32L208 2H27L30 31L87 38V594Q62 598 22 600L25 624Q87 640 130 670Z" />
<glyph unicode="m" glyph-name="m" horiz-adv-x="708" d="M136 405H153L155 330Q220 401 283 401Q313 401 344 383T390 323Q429 362 456 378T521 395Q588 395 619 332Q628 313 632 286T636 232T635 174Q634 127 629 33Q653 30 681 30L683 -1L501 1V29L564 30Q568
106 568 167Q568 212 568 233T563 277T548 314Q527 345 490 345Q471 345 451 334T423 314T395 286V37L446 28V1L272 2V26L302 30L328 37V239Q328 262 327 276T320 311T300 341T262 351Q215 351 176 315Q163 303 159 290T155 248V33Q167 31 201 30L200 1Q147 1 30
4V30L88 36V317Q75 321 28 330V353Q77 366 136 405Z" />
<glyph unicode="n" glyph-name="n" horiz-adv-x="469" d="M130 402L149 403V333L200 364Q256 397 285 397Q315 397 341 381T380 342Q401 302 399 210L397 41Q431 38 449 33L452 4L283 2V27L330 34L332 151Q334 236 324 291Q320 313 307 326T282 343T263 347Q209
347 165 308L150 295Q147 243 147 127V35L197 32L198 2H142Q120 2 77 1T29 0L30 33Q70 31 83 36V316Q79 316 53 318T23 321V343L67 357Q94 370 130 402Z" />
<glyph unicode="o" glyph-name="o" horiz-adv-x="469" d="M231 404Q311 404 372 351T434 204T372 52T230 -6Q147 -6 91 55T35 196Q35 288 98 346T231 404ZM219 375Q185 370 162 349T128 299T114 248T110 203Q110 160 120 121T160 51T232 20Q293 20 327 74T361
199Q361 275 323 330T219 375Z" />
<glyph unicode="p" glyph-name="p" horiz-adv-x="458" d="M118 403H137V354Q215 402 256 402Q279 402 305 391T358 356T402 292T420 199Q420 110 367 49T233 -12Q208 -12 195 -6T142 29V-222L208 -223V-255Q44 -255 17 -256V-224L73 -223Q73 -205 73 -147T72 30T67
331Q41 338 12 338V363Q73 378 118 403ZM138 325V64Q149 51 171 40T218 28Q270 28 308 72T347 194Q347 264 315 310T235 357Q199 357 138 325Z" />
<glyph unicode="q" glyph-name="q" horiz-adv-x="467" d="M329 360V400H338L446 388L444 363Q420 363 394 358V-222L457 -224L454 -257L354 -256L254 -257V-225L322 -223Q325 -117 328 32Q294 14 281 7T249 -5T215 -11Q149 -11 93 44T36 195Q36 280 89 340T220
401Q270 401 329 360ZM327 113V328Q277 371 238 371Q180 371 146 316T111 194Q111 117 147 78Q168 55 198 42T250 29Q258 29 268 32T293 42T317 68T327 113Z" />
<glyph unicode="r" glyph-name="r" horiz-adv-x="333" d="M146 395H163V316L187 335Q192 338 211 353T233 371Q262 390 281 390Q301 390 314 376T327 341Q327 304 290 287Q276 305 268 311T243 317Q221 317 165 286Q165 216 167 148L169 88Q171 43 175 40Q177
38 186 37Q191 37 217 36T247 34L246 1Q187 3 149 3Q140 3 95 2T42 1V34L101 40Q101 247 93 316Q67 322 40 323L37 349Q78 356 100 365T146 395Z" />
<glyph unicode="s" glyph-name="s" horiz-adv-x="333" d="M248 391L270 389Q272 380 279 335T288 285H261Q249 308 243 319T224 344T197 363T160 369Q130 369 110 354T89 314Q89 286 112 269T194 231Q254 209 281 183T308 114Q308 62 271 28T160 -7Q116 -7 57
12L37 112Q52 113 67 107Q68 105 79 77T95 44Q111 23 157 23Q205 23 226 45T248 91Q248 119 226 136T154 173Q94 196 67 220T39 288Q39 334 75 366T157 399Q177 399 202 390Q203 390 216 385T232 380Q237 380 248 391Z" />
<glyph unicode="t" glyph-name="t" horiz-adv-x="271" d="M130 464H154L148 382V375L260 373L259 335H150Q147 266 147 239Q147 69 149 55Q151 43 155 40T169 37Q212 37 260 50V19Q206 -6 148 -6Q87 -6 82 21L78 112Q78 122 79 172T81 231Q82 265 82 335L24 338L25
355Q60 371 82 394T130 464Z" />
<glyph unicode="u" glyph-name="u" horiz-adv-x="469" d="M16 378L125 387H148L138 123Q136 79 150 59T196 38Q250 38 326 102V345Q290 349 289 349Q277 349 263 347L260 378L366 385L390 386V33L403 34L445 30V-1H421Q361 -1 326 -6L325 64L297 40Q278 23 238
7T166 -10Q74 -10 74 98V346H16Q14 354 14 361T16 378Z" />
<glyph unicode="v" glyph-name="v" horiz-adv-x="469" d="M19 380L179 384L221 383L222 350L142 348L262 84L320 220Q347 286 365 343Q353 351 322 353V383H453L455 353L406 346Q397 329 382 291Q311 108 258 -15H232Q216 31 175 116Q166 134 121 232T67 347L19 348V380Z" />
<glyph unicode="w" glyph-name="w" horiz-adv-x="656" d="M13 388L95 386Q105 386 134 386T198 386T236 386Q366 386 428 385V355L398 352Q388 351 379 345Q371 318 371 286Q371 275 373 271L387 239Q394 223 416 167T450 87Q470 134 500 205T561 349L510 358L506
385H649V358L623 354Q611 353 607 350Q604 348 595 327L521 172Q471 67 461 17Q457 -3 451 -14H425Q394 52 363 132Q338 197 335 204Q304 147 290 113Q286 102 267 48T245 -14H219Q214 23 165 133Q163 137 163 138Q119 249 73 351Q68 352 43 354T12 358L13 388ZM250
100L322 241Q305 314 301 329T289 349Q282 355 220 355Q169 355 158 351Q154 348 154 346Q154 341 167 301T192 232Q194 227 219 170T250 100Z" />
<glyph unicode="x" glyph-name="x" horiz-adv-x="427" d="M183 189Q138 258 58 355L22 357V387Q66 386 136 387Q144 387 160 387T199 388L201 358Q165 352 160 352Q154 352 146 354L224 243L306 353Q305 353 287 356T268 360Q262 362 262 369Q262 378 265 388Q344
386 400 386L404 359L361 355Q346 349 343 346L245 219L372 36L416 29V2Q409 2 375 0T335 -2Q334 -2 285 1T230 4L232 31Q270 34 292 39Q276 71 206 162Q147 95 115 36L156 26V2Q149 2 124 2T79 3Q36 3 19 2V28Q22 29 36 32T62 38T77 44Q79 46 100 72T147 135T183
189Z" />
<glyph unicode="y" glyph-name="y" horiz-adv-x="469" d="M13 379L23 387H210Q214 375 214 369T211 354H161Q157 354 149 353L147 348Q164 294 180 260L263 82L350 301Q361 327 361 341T313 358V388Q375 386 455 388L456 355H441Q410 355 404 345Q392 327 368
255Q312 120 194 -174Q164 -247 100 -247Q73 -247 57 -235T38 -211T34 -190Q34 -159 68 -159Q82 -159 90 -162T100 -168T106 -177Q116 -193 125 -193Q135 -193 153 -175Q162 -164 182 -120L229 10Q129 215 69 346Q56 354 33 354H17L13 379Z" />
<glyph unicode="z" glyph-name="z" horiz-adv-x="375" d="M247 358H152Q104 358 96 356Q85 354 65 278H38L41 387L341 388L110 35L233 37Q263 38 276 47T300 86L318 134H346L339 3H265Q258 3 222 5T180 7H140Q97 7 21 3V22L69 88L247 358Z" />
<glyph unicode="{" glyph-name="braceleft" horiz-adv-x="432" d="M387 -232V-249Q301 -237 252 -181T203 -61Q203 -27 214 17Q226 65 226 93Q226 123 200 155T114 196V216Q173 224 199 257T226 319Q226 331 224 347T218 378T214 395Q203 442 203 473Q203 536
251 592T387 661V644Q344 633 322 617Q277 586 277 531Q277 518 279 501T285 468T289 451Q300 410 300 375Q300 360 295 342T277 298T232 248T155 207Q227 180 263 133T300 37Q300 5 289 -39Q289 -41 286 -56T280 -88T277 -119Q277 -172 322 -204Q347 -221 387
-232Z" />
<glyph unicode="|" glyph-name="bar" horiz-adv-x="480" d="M213 750H267V-250H213V750Z" />
<glyph unicode="}" glyph-name="braceright" horiz-adv-x="432" d="M45 644V661Q131 649 180 593T229 473Q229 439 218 395Q206 347 206 319Q206 289 232 257T318 216V196Q259 188 233 155T206 93Q206 81 208 65T214 34T218 17Q229 -30 229 -61Q229 -124 181 -180T45
-249V-232Q88 -221 110 -205Q155 -174 155 -119Q155 -106 153 -89T147 -56T143 -39Q132 2 132 37Q132 52 137 70T155 114T200 164T277 205Q205 232 169 279T132 375Q132 407 143 451Q143 453 146 468T152 500T155 531Q155 584 110 616Q85 633 45 644Z" />
<glyph unicode="~" glyph-name="asciitilde" horiz-adv-x="667" d="M572 382H595Q594 316 559 279T473 242Q446 242 419 250T316 291Q215 332 185 332Q113 332 95 243H72Q74 282 86 311T113 353T147 373T174 382T189 383Q236 383 375 324Q449 292 482 292Q514
292 540 312T572 382Z" />
</font>
</defs>
</svg>
