<?xml version="1.0" standalone="no"?> <!DOCTYPE svg PUBLIC "-//W3C//DTD SVG 1.0//EN" "http://www.w3.org/TR/2001/REC-SVG-20010904/DTD/svg10.dtd" > <svg xmlns="http://www.w3.org/2000/svg" width="100%" height="100%">
<defs >
<font id="Kobern-Light" horiz-adv-x="1008" ><font-face
    font-family="Kobern-Light"
    units-per-em="2048"
    panose-1="0 0 4 0 0 0 0 0 0 0"
    ascent="2061"
    descent="-489"
    alphabetic="0" />
<missing-glyph horiz-adv-x="748" d="M68 0V1365H612V0H68ZM136 68H544V1297H136V68Z" />
<glyph unicode=" " glyph-name="space" horiz-adv-x="614" />
<glyph unicode="!" glyph-name="exclam" horiz-adv-x="280" d="M96 0V140H187V0H96ZM100 380V1434H183V380H100Z" />
<glyph unicode="&quot;" glyph-name="quotedbl" horiz-adv-x="569" d="M96 1536H175L170 1130H101L96 1536ZM396 1536H475L470 1130H401L396 1536Z" />
<glyph unicode="#" glyph-name="numbersign" horiz-adv-x="1161" d="M96 483V545H343L398 916H96V978H407L475 1434H542L474 978H743L811 1434H878L810 978H1067V916H801L746 545H1067V483H737L665 0H598L670 483H401L329 0H262L334 483H96ZM410 545H679L734 916H465L410
545Z" />
<glyph unicode="$" glyph-name="dollar" horiz-adv-x="1105" d="M95 127L118 193Q207 129 318 93T541 55Q640 53 719 78T854 162T923 309Q928 340 928 378Q928 424 918 460T883 528T831 582T754 631T663 675T550 722Q525 732 484 748T420 773T362 797T307 824T260
854T218 890T186 931T161 982T146 1043T140 1116Q140 1128 142 1158Q151 1288 257 1362T520 1449V1653H587V1452Q800 1450 974 1369L955 1301Q786 1377 597 1379Q498 1380 418 1356T284 1280T226 1153Q224 1125 224 1112Q224 1081 228 1055T239 1009T259 969T285
937T319 909T359 885T406 862T458 841T518 817T582 792Q633 772 665 758T740 725T808 690T867 653T918 612T957 566T988 512T1005 451T1012 379Q1012 336 1007 301Q996 222 958 161T863 62T736 4T587 -18V-219H520V-17Q406 -9 295 28T95 127Z" />
<glyph unicode="%" glyph-name="percent" horiz-adv-x="1544" d="M96 1069Q96 1262 165 1348T369 1434T572 1349T641 1069Q641 853 580 763T369 673T158 763T96 1069ZM155 1069Q155 871 201 799T369 726T536 798T582 1069Q582 1242 531 1311T369 1381T207 1312T155
1069ZM223 -35L1248 1468H1323L298 -35H223ZM908 396Q908 590 977 675T1180 760T1383 675T1452 396Q1452 180 1391 90T1180 0T970 90T908 396ZM966 396Q966 198 1012 126T1180 53T1347 125T1393 396Q1393 569 1342 638T1180 708T1018 639T966 396Z" />
<glyph unicode="&amp;" glyph-name="ampersand" horiz-adv-x="1243" d="M116 346Q116 415 138 477T204 595T297 697T418 799L314 931Q216 1057 216 1182Q216 1300 307 1375T565 1451Q703 1451 788 1386T869 1198Q867 1143 857 1109T810 1033T729 955T588 843Q577
835 572 831L517 788L951 236Q978 283 985 336L1029 658L1101 650L1051 309Q1037 234 1003 179L1127 24L1072 -25L953 126Q891 53 794 17T585 -18Q457 -19 362 9T204 102T123 268Q116 306 116 346ZM194 351Q194 327 199 292Q235 48 588 51Q687 50 771 83T904 183L464
745Q410 702 377 673T305 603T245 527T209 446T194 351ZM288 1181Q288 1081 373 972L477 838L523 874Q695 1008 727 1038Q782 1090 794 1142Q798 1164 800 1197Q805 1295 742 1341T567 1388Q434 1388 361 1331T288 1181Z" />
<glyph unicode="&apos;" glyph-name="quotesingle" horiz-adv-x="270" d="M96 1536H175L170 1130H101L96 1536Z" />
<glyph unicode="(" glyph-name="parenleft" horiz-adv-x="542" d="M96 585Q96 858 170 1069Q238 1261 393 1467L448 1442Q306 1242 243 1052Q175 849 175 586Q175 322 243 119Q307 -74 448 -270L393 -295Q240 -95 170 102Q96 313 96 585Z" />
<glyph unicode=")" glyph-name="parenright" horiz-adv-x="542" d="M96 -270Q237 -74 301 119Q369 322 369 585Q369 849 301 1052Q238 1242 96 1442L151 1468Q306 1264 375 1069Q448 861 448 586Q448 310 375 102Q306 -92 151 -295L96 -270Z" />
<glyph unicode="*" glyph-name="asterisk" horiz-adv-x="698" d="M96 1267L113 1319L320 1252V1468H381V1252L588 1319L605 1267L397 1199L525 1023L478 988L351 1163L224 988L176 1023L304 1199L96 1267Z" />
<glyph unicode="+" glyph-name="plus" horiz-adv-x="1085" d="M96 563V624H507V1036H579V624H991V563H579V152H507V563H96Z" />
<glyph unicode="," glyph-name="comma" horiz-adv-x="290" d="M105 0V151H196V21L165 -123H107L134 0H105Z" />
<glyph unicode="-" glyph-name="hyphen" horiz-adv-x="794" d="M96 582V653H701V582H96Z" />
<glyph unicode="." glyph-name="period" horiz-adv-x="280" d="M96 0V151H187V0H96Z" />
<glyph unicode="/" glyph-name="slash" horiz-adv-x="722" d="M60 0L589 1434H666L137 0H60Z" />
<glyph unicode="0" glyph-name="zero" horiz-adv-x="1329" d="M161 720Q161 906 194 1037T293 1248T450 1363T665 1399T880 1363T1037 1248T1136 1038T1169 720Q1169 514 1143 376T1056 148T901 21T665 -18T430 20T274 148T187 375T161 720ZM246 720Q246 526 267
401T339 197T467 87T665 55T862 87T991 197T1063 400T1084 720Q1084 891 1057 1009T976 1196T846 1296T665 1326T485 1296T355 1197T273 1009T246 720Z" />
<glyph unicode="1" glyph-name="one" horiz-adv-x="731" d="M76 1112L458 1392H525V0H440V1298L105 1052L76 1112Z" />
<glyph unicode="2" glyph-name="two" horiz-adv-x="1118" d="M77 0V56L608 547Q733 665 798 791T863 1029Q863 1068 856 1099Q832 1215 731 1273T490 1327Q382 1323 282 1284T112 1177L86 1240Q164 1316 279 1357T514 1399Q620 1399 707 1369T858 1273T940 1110Q947
1076 947 1034Q947 906 876 765T670 497L209 71H959V0H77Z" />
<glyph unicode="3" glyph-name="three" horiz-adv-x="1140" d="M88 100L110 163Q187 110 287 81T490 52Q573 52 644 72T774 132T865 241T898 398Q898 474 876 529T815 619T710 674T569 702T388 710V774Q638 774 749 843T858 1069Q857 1193 767 1261T504 1328Q396
1326 295 1289T120 1184L95 1242Q173 1316 287 1356T521 1398Q714 1399 820 1318T935 1095Q936 1085 936 1066Q936 818 650 749Q820 722 902 636T981 384Q978 280 937 201T826 75T673 5T493 -18Q382 -18 275 13T88 100Z" />
<glyph unicode="4" glyph-name="four" horiz-adv-x="1161" d="M104 334V393L772 1392H866V403H1060V334H866V0H792V334H104ZM193 403H792V1295L193 403Z" />
<glyph unicode="5" glyph-name="five" horiz-adv-x="1144" d="M133 100L156 164Q232 112 332 83T536 53Q620 53 688 74T810 142T893 269T922 460Q922 557 894 626T815 733T706 786T573 802Q476 801 378 775T210 711L151 716L210 1392H946V1323H277L230 784Q307
818 406 841T601 866Q667 866 723 855T833 814T924 739T983 623T1006 460Q1006 357 982 275T916 139T815 49T689 -2T545 -18Q433 -18 325 13T133 100Z" />
<glyph unicode="6" glyph-name="six" horiz-adv-x="1232" d="M160 726Q160 872 189 988T266 1178T383 1303T524 1374T680 1399H700Q864 1399 1025 1331L1008 1266Q851 1330 706 1330H686Q615 1328 554 1310T435 1249T336 1142T270 978T242 751V703Q445 866 686
869Q753 870 811 859T923 818T1017 744T1079 626T1103 460Q1103 332 1067 238T967 89T822 8T646 -18Q378 -18 269 150T160 726ZM244 631Q250 411 292 285T418 105T645 50Q727 50 793 72T911 141T991 268T1020 458Q1020 537 1001 598T951 697T874 761T781 795T675
805Q560 804 455 764T244 631Z" />
<glyph unicode="7" glyph-name="seven" horiz-adv-x="1087" d="M77 1321V1392H1014V1339L340 0H248L913 1321H77Z" />
<glyph unicode="8" glyph-name="eight" horiz-adv-x="1249" d="M161 387Q161 519 234 597T486 738Q418 762 373 786T289 848T231 939T212 1066Q212 1091 213 1105Q216 1173 242 1225T309 1310T406 1362T519 1391T641 1399Q718 1399 784 1384T908 1336T1001 1244T1040
1105Q1041 1092 1041 1067Q1041 927 965 846T739 713Q831 682 886 657T993 593T1067 502T1090 376Q1090 342 1084 300Q1069 194 1002 120T843 14T641 -18Q544 -19 466 -3T324 49T220 143T169 284Q161 343 161 387ZM241 392Q241 352 249 293Q268 163 368 106T641
50Q786 48 886 112T1005 307Q1010 349 1010 375Q1010 402 1007 425T994 469T976 505T948 538T915 565T872 589T825 611T769 633T709 653T640 676L571 697Q382 636 312 573T241 392ZM293 1065Q293 1005 310 960T348 887T421 833T510 793T629 754Q644 749 651 747L667
752Q741 776 792 801T884 863T946 950T966 1068Q966 1090 965 1102Q961 1185 914 1238T799 1312T643 1333Q307 1333 294 1102Q293 1089 293 1065Z" />
<glyph unicode="9" glyph-name="nine" horiz-adv-x="1230" d="M131 920Q131 1048 167 1143T267 1292T411 1373T587 1399Q768 1399 873 1327T1025 1095T1073 661Q1073 515 1044 399T967 206T850 80T709 7T553 -18Q549 -18 542 -18T531 -19Q370 -19 208 50L225 114Q382
50 527 50Q530 50 537 50T547 51Q617 53 679 72T798 134T897 243T964 409T991 637V677Q788 514 547 511Q480 510 422 521T310 562T217 636T155 754T131 920ZM213 923Q213 844 232 783T282 684T359 620T452 586T558 576Q790 576 990 749Q984 971 942 1097T816 1276T588
1331Q506 1331 440 1309T322 1240T242 1113T213 923Z" />
<glyph unicode=":" glyph-name="colon" horiz-adv-x="280" d="M96 0V151H187V0H96ZM96 908V1059H187V908H96Z" />
<glyph unicode=";" glyph-name="semicolon" horiz-adv-x="290" d="M105 0V151H196V21L165 -123H107L134 0H105ZM105 908V1059H196V908H105Z" />
<glyph unicode="&lt;" glyph-name="less" horiz-adv-x="970" d="M96 479V537L875 949V873L180 508L875 143V68L96 479Z" />
<glyph unicode="=" glyph-name="equal" horiz-adv-x="1085" d="M96 372V433H991V372H96ZM96 746V807H991V746H96Z" />
<glyph unicode="&gt;" glyph-name="greater" horiz-adv-x="970" d="M96 68V143L791 508L96 873V949L875 537V479L96 68Z" />
<glyph unicode="?" glyph-name="question" horiz-adv-x="1042" d="M96 1297Q171 1370 283 1411T512 1452Q617 1452 708 1421T864 1322T943 1159Q949 1117 949 1081Q949 1021 933 968T897 879T838 804T775 745T704 691Q691 682 685 677Q601 615 562 567T523 447V361H439V447Q439
485 451 520T478 581T523 635T574 681T634 727Q679 761 702 779T762 834T817 902T850 980T865 1078Q865 1112 859 1149Q840 1264 738 1324T494 1381Q389 1379 290 1342T121 1237L96 1297ZM436 0V140H527V0H436Z" />
<glyph unicode="@" glyph-name="at" horiz-adv-x="1538" d="M96 661Q96 882 139 1037T271 1286T481 1421T770 1463T1059 1421T1269 1286T1400 1038T1444 661Q1444 581 1431 518T1396 412T1341 339T1275 292T1197 266T1117 254T1035 251H978V337Q898 240 760 239Q597
237 524 329T450 641Q450 830 521 921T725 1013Q746 1013 757 1012Q890 1002 969 919V1000H1032V310H1047Q1089 310 1119 312T1187 322T1251 345T1303 386T1345 448T1371 539T1381 661Q1381 869 1343 1013T1225 1244T1036 1367T770 1405T505 1368T315 1244T198
1014T159 661Q159 426 190 274T295 25T482 -110T770 -150Q1116 -150 1304 19L1327 -33Q1128 -207 770 -207Q520 -207 375 -124T163 147T96 661ZM513 641Q513 444 569 367T765 291Q901 292 969 405V850Q894 948 764 958Q754 959 734 959Q624 959 569 883T513 641Z"
/>
<glyph unicode="A" glyph-name="A" horiz-adv-x="1339" d="M74 1L619 1434H722L1266 1H1177L1022 410H319L164 1H74ZM339 482H1002L670 1358L339 482Z" />
<glyph unicode="B" glyph-name="B" horiz-adv-x="1312" d="M208 0V1434H722Q893 1434 989 1354T1087 1111Q1087 1108 1087 1105Q1087 828 890 766Q1157 704 1157 410Q1156 0 761 0H208ZM289 70H747Q906 70 989 148T1073 416Q1073 478 1059 527T1024 608T971 663T910
697T843 715T783 723T731 724H289V70ZM289 788H731Q876 788 940 864T1005 1097Q1005 1363 710 1363H289V788Z" />
<glyph unicode="C" glyph-name="C" horiz-adv-x="1259" d="M178 744Q178 939 214 1075T325 1294T502 1414T747 1451Q751 1451 756 1451Q984 1451 1120 1350L1098 1283Q974 1375 755 1375Q627 1375 538 1344T385 1239T293 1044T263 744Q263 585 278 472T328 278T421
149T560 80T755 58Q977 58 1098 142L1120 75Q990 -18 747 -18Q589 -17 483 22T308 152T208 386T178 744Z" />
<glyph unicode="D" glyph-name="D" horiz-adv-x="1443" d="M208 0V1434H699Q837 1434 938 1400T1115 1287T1229 1073T1268 746Q1268 534 1237 392T1136 162T960 37T699 0H208ZM292 73H699Q808 73 885 93T1021 158T1114 282T1166 474T1183 746Q1183 922 1152 1042T1056
1232T906 1330T699 1360H292V73Z" />
<glyph unicode="E" glyph-name="E" horiz-adv-x="1210" d="M208 0V1434H1051V1362H292V781H957V710H292V71H1083V0H208Z" />
<glyph unicode="F" glyph-name="F" horiz-adv-x="1155" d="M208 0V1434H1027V1362H292V754H934V683H292V0H208Z" />
<glyph unicode="G" glyph-name="G" horiz-adv-x="1394" d="M178 746Q178 902 201 1019T270 1218T386 1351T544 1426T746 1450Q754 1450 761 1450Q887 1450 979 1434Q1077 1418 1171 1378L1152 1309Q1062 1346 972 1361T756 1377Q628 1377 539 1345T386 1240T293
1046T263 746Q263 585 278 473T325 280T416 152T553 82T748 55Q771 54 812 54Q918 54 988 69T1129 119V634H836V708H1207V67Q1115 21 1026 1T810 -19Q773 -19 754 -18Q539 -12 416 61T235 298T178 746Z" />
<glyph unicode="H" glyph-name="H" horiz-adv-x="1429" d="M208 0V1434H292V781H1138V1434H1222V0H1138V710H292V0H208Z" />
<glyph unicode="I" glyph-name="I" horiz-adv-x="499" d="M208 0V1434H292V0H208Z" />
<glyph unicode="J" glyph-name="J" horiz-adv-x="1036" d="M74 66L96 129Q215 55 375 55Q378 55 386 55T397 56Q467 58 527 80T637 145T717 265T746 442V1433H831V435Q831 316 795 227T697 87T562 10T403 -18Q399 -18 395 -18Q309 -18 225 4Q137 26 74 66Z" />
<glyph unicode="K" glyph-name="K" horiz-adv-x="1284" d="M208 0V1434H292V791H567L1080 1434H1186L643 755L1213 0H1109L566 720H292V0H208Z" />
<glyph unicode="L" glyph-name="L" horiz-adv-x="1116" d="M208 0V1434H292V71H1044V0H208Z" />
<glyph unicode="M" glyph-name="M" horiz-adv-x="1685" d="M197 0V1434H309L839 102L1369 1434H1481V0H1400V1305L877 0H802L279 1305V0H197Z" />
<glyph unicode="N" glyph-name="N" horiz-adv-x="1409" d="M197 0V1434H293L1133 125V1434H1215V0H1119L279 1306V0H197Z" />
<glyph unicode="O" glyph-name="O" horiz-adv-x="1490" d="M178 746Q178 940 213 1075T320 1294T497 1414T747 1451T996 1414T1172 1294T1280 1076T1315 746Q1315 530 1288 389T1193 154T1019 22T747 -18T476 21T301 154T206 388T178 746ZM263 746Q263 583 278
470T326 275T416 146T553 78T747 56Q890 56 980 88T1127 203T1207 413T1230 746Q1230 925 1202 1047T1112 1242T962 1346T747 1377Q577 1377 474 1320T317 1124T263 746Z" />
<glyph unicode="P" glyph-name="P" horiz-adv-x="1239" d="M206 0V1434H687Q889 1434 1000 1340T1111 1046Q1111 822 1017 711T715 599H290V0H206ZM290 670H709Q879 670 954 760T1029 1044Q1029 1211 941 1287T682 1363H290V670Z" />
<glyph unicode="Q" glyph-name="Q" horiz-adv-x="1497" d="M178 746Q178 940 213 1075T320 1294T497 1414T747 1451T996 1414T1172 1294T1280 1076T1315 746Q1315 497 1276 342T1147 102L1322 -74L1266 -131L1083 53Q964 -18 747 -18Q583 -18 476 21T301 154T206
388T178 746ZM263 746Q263 583 278 470T326 275T416 146T553 78T747 56Q890 56 980 88T1127 203T1207 413T1230 746Q1230 925 1202 1047T1112 1242T962 1346T747 1377Q577 1377 474 1320T317 1124T263 746Z" />
<glyph unicode="R" glyph-name="R" horiz-adv-x="1290" d="M208 0V1434H683Q1074 1434 1074 1082Q1074 884 998 787T751 680L1146 0H1051L669 672H292V0H208ZM292 743H702Q857 743 923 822T990 1080Q990 1230 911 1296T676 1363H292V743Z" />
<glyph unicode="S" glyph-name="S" horiz-adv-x="1124" d="M95 127L118 193Q207 129 318 93T541 55Q548 55 556 55Q646 55 720 78Q800 103 855 162T923 309Q928 340 928 378Q928 424 918 460T883 528T831 582T754 631T663 675T550 722Q525 732 484 748T420 773T362
797T307 824T260 854T218 890T186 931T161 982T146 1043T140 1116Q140 1128 142 1158Q148 1254 213 1322T372 1421T581 1452Q798 1452 974 1369L955 1301Q786 1377 597 1379Q593 1379 589 1379Q496 1379 418 1356Q338 1332 285 1280T226 1153Q224 1125 224 1112Q224
1081 228 1055T239 1009T259 969T285 937T319 909T359 885T406 862T458 841T518 817T582 792Q633 772 665 758T740 725T808 690T867 653T918 612T957 566T988 512T1005 451T1012 379Q1012 336 1007 301Q984 140 860 60Q739 -18 569 -18Q565 -18 560 -18Q438 -16
315 22T95 127Z" />
<glyph unicode="T" glyph-name="T" horiz-adv-x="1171" d="M74 1362V1434H1100V1362H629V0H545V1362H74Z" />
<glyph unicode="U" glyph-name="U" horiz-adv-x="1462" d="M208 602V1433H292V602Q292 478 303 394T342 241T422 134T550 75T738 55T926 75T1054 133T1133 240T1173 393T1184 602V1433H1268V602Q1268 469 1255 375T1207 203T1112 79T960 7T738 -18T516 7T364 78T270
203T222 375T208 602Z" />
<glyph unicode="V" glyph-name="V" horiz-adv-x="1296" d="M74 1434H163L650 87L1136 1434H1225L702 0H597L74 1434Z" />
<glyph unicode="W" glyph-name="W" horiz-adv-x="1781" d="M76 1434H162L485 93L842 1434H943L1300 93L1622 1434H1709L1355 0H1246L892 1312L539 0H429L76 1434Z" />
<glyph unicode="X" glyph-name="X" horiz-adv-x="1216" d="M74 0L555 721L80 1434H178L615 780L1046 1434H1144L669 713L1144 0H1046L609 660L172 0H74Z" />
<glyph unicode="Y" glyph-name="Y" horiz-adv-x="1220" d="M74 1434H168L611 596L1055 1434H1148L653 511V0H569V512L74 1434Z" />
<glyph unicode="Z" glyph-name="Z" horiz-adv-x="1173" d="M104 0V54L949 1362H157V1434H1053V1380L208 71H1063V0H104Z" />
<glyph unicode="[" glyph-name="bracketleft" horiz-adv-x="604" d="M96 -279V1457H477V1398H171V-219H509V-279H96Z" />
<glyph unicode="\" glyph-name="backslash" horiz-adv-x="722" d="M60 1434H137L666 0H589L60 1434Z" />
<glyph unicode="]" glyph-name="bracketright" horiz-adv-x="604" d="M96 -219H434V1398H128V1457H509V-279H96V-219Z" />
<glyph unicode="^" glyph-name="asciicircum" horiz-adv-x="1142" d="M95 781L535 1434H609L1049 781H971L572 1372L173 781H95Z" />
<glyph unicode="_" glyph-name="underscore" horiz-adv-x="1161" d="M96 -276H1067V-346H96V-276Z" />
<glyph unicode="`" glyph-name="grave" horiz-adv-x="419" d="M96 1536H175L326 1279H259L96 1536Z" />
<glyph unicode="a" glyph-name="a" horiz-adv-x="985" d="M104 289Q104 424 180 497T427 586L766 618V719Q766 854 698 920Q631 985 486 984H482Q363 983 155 958L146 1015Q350 1041 490 1041Q846 1041 846 715V0H777V149Q719 68 627 25T436 -18Q347 -18 273 15T152
119T104 289ZM177 399T177 288Q177 170 257 106T453 41Q655 41 768 223V563L439 532Q300 519 239 459Z" />
<glyph unicode="b" glyph-name="b" horiz-adv-x="1073" d="M151 0V1434H231V902Q342 1027 535 1042Q550 1043 580 1043Q763 1043 863 919T963 534Q963 232 860 106Q759 -18 541 -18Q536 -18 531 -18Q430 -17 350 23T218 131V0H151ZM231 204Q330 41 523 40Q528
40 534 40Q660 40 734 84Q812 130 847 238T883 534Q883 767 803 875T567 984Q553 984 525 982Q335 966 231 827V204Z" />
<glyph unicode="c" glyph-name="c" horiz-adv-x="915" d="M113 532Q113 672 142 771T230 929T367 1015T549 1042Q710 1042 815 979L797 927Q701 981 561 981Q374 981 284 879T193 532Q193 257 275 150T561 43Q702 43 797 94L815 40Q714 -18 549 -18Q395 -17 301
35T160 208T113 532Z" />
<glyph unicode="d" glyph-name="d" horiz-adv-x="1073" d="M113 534Q113 794 212 918T495 1043Q525 1043 540 1042Q733 1027 844 902V1434H924V0H856V131Q805 63 726 23T545 -18Q540 -18 535 -18Q317 -18 216 106Q113 232 113 534ZM193 534Q193 347 229 239Q264
130 342 84Q416 39 542 40Q547 40 553 40Q745 41 844 204V827Q740 966 551 982Q523 984 509 984Q353 984 273 876T193 534Z" />
<glyph unicode="e" glyph-name="e" horiz-adv-x="1028" d="M113 534Q113 800 217 920T528 1042Q566 1042 598 1039T674 1023T751 989T821 928T879 834T916 698Q928 627 927 542Q927 529 927 516H192Q193 261 279 152T566 42Q662 42 730 59T863 115L882 62Q808
21 733 2T556 -18Q324 -18 219 112T113 534ZM192 569H854Q853 649 841 712T810 818T765 892T712 940T651 966T591 978T531 981Q363 980 280 884T192 569Z" />
<glyph unicode="f" glyph-name="f" horiz-adv-x="747" d="M68 966V1024H249V1147Q249 1320 345 1398Q410 1451 513 1451Q614 1451 731 1404L717 1353Q605 1394 528 1394Q449 1394 399 1353Q329 1294 329 1147V1024H649V966H329V0H249V966H68Z" />
<glyph unicode="g" glyph-name="g" horiz-adv-x="1073" d="M113 490Q113 493 113 496Q113 791 215 916Q316 1041 538 1041Q541 1041 545 1041Q744 1038 857 893V1025H921V147Q921 12 905 -76T844 -230T721 -325T518 -356Q430 -356 320 -338T130 -297L143 -240Q357
-297 506 -297Q608 -296 673 -273T775 -198T825 -77T841 100V130Q730 9 543 -7Q528 -8 500 -8Q313 -8 214 114T113 490ZM193 677T193 490Q193 259 272 155T507 51Q521 51 551 53Q740 69 844 204V822Q747 983 553 984Q548 984 542 984Q417 984 342 940Q265 893 229
785Z" />
<glyph unicode="h" glyph-name="h" horiz-adv-x="1071" d="M162 0V1434H242V882Q300 958 389 999T574 1042Q644 1042 707 1020T820 956T901 843T931 685V0H851V685Q851 828 767 905T559 982Q462 982 377 936T242 804V0H162Z" />
<glyph unicode="i" glyph-name="i" horiz-adv-x="399" d="M160 1260V1389H248V1260H160ZM164 0V1024H244V0H164Z" />
<glyph unicode="j" glyph-name="j" horiz-adv-x="413" d="M-61 -342L-55 -289Q-40 -291 -12 -291Q66 -291 111 -250Q180 -190 180 -39V1024H261V-39Q261 -230 153 -299Q91 -345 -7 -345Q-32 -345 -61 -342ZM176 1261V1390H264V1261H176Z" />
<glyph unicode="k" glyph-name="k" horiz-adv-x="993" d="M162 0V1434H242V585H415L799 1024H897L488 556L921 0H824L420 524H242V0H162Z" />
<glyph unicode="l" glyph-name="l" horiz-adv-x="372" d="M153 0V1434H233V0H153Z" />
<glyph unicode="m" glyph-name="m" horiz-adv-x="1595" d="M151 0V1024H218L221 880Q278 957 361 998T531 1042Q535 1042 539 1042Q624 1042 698 1002Q776 960 817 877Q877 955 961 997T1134 1042Q1137 1042 1140 1042Q1201 1042 1255 1022Q1312 1000 1358 958T1430
847T1457 691V0H1379V691Q1379 832 1304 908Q1231 982 1125 982Q1122 982 1119 982Q1038 981 964 940T840 822Q859 762 859 691V0H779V691Q779 832 704 908Q631 982 525 982Q522 982 519 982Q433 981 356 936T229 804V0H151Z" />
<glyph unicode="n" glyph-name="n" horiz-adv-x="1060" d="M151 0V1024H220L223 880Q282 957 372 999T560 1042Q630 1042 693 1021T808 957T890 844T921 685V0H841V685Q841 829 756 906Q672 982 550 982H547Q450 981 365 936T231 804V0H151Z" />
<glyph unicode="o" glyph-name="o" horiz-adv-x="1110" d="M113 534Q113 806 225 924T555 1042T885 924T998 534Q998 233 896 108T555 -18T215 107T113 534ZM193 534Q193 345 229 239T342 88T555 43T768 87T881 238T918 534Q918 780 829 880T555 981Q464 981 399
959T287 885T216 747T193 534Z" />
<glyph unicode="p" glyph-name="p" horiz-adv-x="1083" d="M162 -334V1024H230V893Q282 960 362 1000T545 1042Q551 1042 556 1042Q699 1042 788 992Q880 939 926 817T973 490Q973 229 873 105T588 -20Q574 -20 546 -18Q350 0 242 122V-334H162ZM242 197Q346 58
535 42Q563 40 576 40Q733 40 813 148T893 490Q893 677 857 785T744 940Q669 984 544 984Q538 984 533 984Q341 983 242 820V197Z" />
<glyph unicode="q" glyph-name="q" horiz-adv-x="1075" d="M113 490Q113 695 159 817T297 992Q386 1042 529 1042Q534 1042 540 1042Q642 1041 723 1001T858 893V1024H924V-334H844V122Q736 0 540 -18Q512 -20 498 -20Q313 -20 213 104T113 490ZM193 490Q193 257
273 149T510 40Q523 40 551 42Q740 58 844 197V820Q745 983 553 984Q548 984 542 984Q417 984 342 940Q265 893 229 785T193 490Z" />
<glyph unicode="r" glyph-name="r" horiz-adv-x="733" d="M151 0V1024H218L223 796Q271 923 370 986Q457 1042 567 1042Q624 1042 681 1027L667 967Q612 982 558 982Q458 982 381 930Q327 893 292 832T231 670V0H151Z" />
<glyph unicode="s" glyph-name="s" horiz-adv-x="851" d="M76 98L97 151Q232 48 406 46Q408 46 411 46Q516 46 591 88Q668 132 681 219Q685 243 685 268Q685 301 678 327T652 376T615 414T560 449T494 480T412 514Q393 522 358 534T306 554T260 573T217 596T182
621T151 653T130 691T115 739T110 798Q110 818 111 829Q118 933 211 987T438 1042Q599 1042 727 985L710 929Q595 981 456 983Q453 983 451 983Q342 982 268 942Q192 900 186 824Q185 814 185 795Q185 771 188 752T199 716T214 687T238 663T266 643T302 625T342
608T389 590T440 570Q499 547 530 533T605 497T672 455T718 407T750 345T760 269Q760 238 756 211Q745 136 693 84T572 10T421 -12Q229 -12 76 98Z" />
<glyph unicode="t" glyph-name="t" horiz-adv-x="739" d="M59 966V1024H234L244 1300H314V1024H607V966H314V247Q314 118 379 70Q421 38 494 38Q536 38 596 49L606 -4Q542 -16 489 -16Q401 -16 350 18Q234 78 234 247V966H59Z" />
<glyph unicode="u" glyph-name="u" horiz-adv-x="1050" d="M141 338V1024H221V338Q220 194 306 118Q390 42 513 42Q515 42 516 42Q613 43 698 89T831 220V1024H911V207Q855 101 746 42T518 -18Q515 -18 511 -18Q440 -18 376 3Q310 25 257 68T172 180T141 338Z" />
<glyph unicode="v" glyph-name="v" horiz-adv-x="1042" d="M55 1024H140L522 71L904 1024H989L571 0H473L55 1024Z" />
<glyph unicode="w" glyph-name="w" horiz-adv-x="1409" d="M55 1024H135L406 75L656 1024H755L1005 75L1277 1024H1357L1057 0H951L706 927L460 0H354L55 1024Z" />
<glyph unicode="x" glyph-name="x" horiz-adv-x="929" d="M55 0L411 515L58 1024H150L468 555L782 1024H874L521 509L877 0H785L464 469L147 0H55Z" />
<glyph unicode="y" glyph-name="y" horiz-adv-x="1015" d="M55 1024H140L528 74L880 1024H964L551 -70Q492 -226 360 -270Q323 -282 281 -282Q204 -282 119 -244L135 -195Q207 -228 266 -228Q298 -228 331 -217Q424 -181 474 -51L489 -10L55 1024Z" />
<glyph unicode="z" glyph-name="z" horiz-adv-x="901" d="M76 0V47L695 963H101V1024H792V977L173 61H800V0H76Z" />
<glyph unicode="{" glyph-name="braceleft" horiz-adv-x="700" d="M96 589V649Q162 652 193 669Q249 701 249 804V1223Q249 1315 274 1369T354 1451Q422 1486 607 1486V1425Q452 1425 399 1399Q322 1364 322 1221V800Q322 679 250 635Q240 627 219 620Q233 615
250 604Q322 560 322 439V18Q322 -59 340 -100T399 -160Q452 -186 607 -186V-248Q510 -248 452 -241T354 -213Q299 -185 274 -131T249 14V433Q249 536 193 568Q163 586 96 589Z" />
<glyph unicode="|" glyph-name="bar" horiz-adv-x="489" d="M208 -334V1536H283V-334H208Z" />
<glyph unicode="}" glyph-name="braceright" horiz-adv-x="700" d="M96 -186Q251 -186 304 -160Q382 -126 382 17V438Q382 559 454 603Q471 614 485 619Q464 626 454 634Q382 678 382 799V1220Q382 1362 304 1398Q251 1424 96 1424V1486Q281 1486 349 1451Q404
1423 429 1369T455 1223V804Q455 701 511 669Q542 652 607 649V589Q540 586 510 568Q455 536 455 433V14Q455 -77 430 -131T349 -213Q309 -234 251 -241T96 -248V-186Z" />
<glyph unicode="~" glyph-name="asciitilde" horiz-adv-x="1017" d="M96 432Q114 573 209 622Q248 643 299 643Q371 643 459 597L576 537Q656 495 718 495Q755 495 785 510Q855 543 872 642L925 638Q907 497 812 448Q773 427 722 427Q650 427 562 473L444 534Q366
575 303 575Q266 575 236 560Q166 527 149 428L96 432Z" />
</font>
</defs>
</svg>
