<?xml version="1.0" standalone="no"?> <!DOCTYPE svg PUBLIC "-//W3C//DTD SVG 1.0//EN" "http://www.w3.org/TR/2001/REC-SVG-20010904/DTD/svg10.dtd" > <svg xmlns="http://www.w3.org/2000/svg" width="100%" height="100%">
<defs >
<font id="Kobern-Medium" horiz-adv-x="538" ><font-face
    font-family="Kobern-Medium"
    units-per-em="1000"
    panose-1="0 0 6 0 0 0 0 0 0 0"
    ascent="950"
    descent="-250"
    alphabetic="0" />
<missing-glyph horiz-adv-x="500" d="M0 700H500V0H0V700ZM420 650H80L250 395L420 650ZM450 95V605L280 350L450 95ZM420 50L250 305L80 50H420ZM50 95L220 350L50 605V95Z" />
<glyph unicode=" " glyph-name="space" horiz-adv-x="300" />
<glyph unicode="!" glyph-name="exclam" horiz-adv-x="179" d="M52 197L43 700H137L128 197H52ZM41 0V99H139V0H41Z" />
<glyph unicode="&quot;" glyph-name="quotedbl" horiz-adv-x="330" d="M48 519L41 750H123L116 519H48ZM216 519L208 750H290L283 519H216Z" />
<glyph unicode="#" glyph-name="numbersign" horiz-adv-x="581" d="M541 497V432H421L398 281H541V216H389L357 0H287L319 216H209L177 0H107L139 216H41V281H149L171 432H41V497H181L211 700H281L251 497H360L390 700H461L430 497H541ZM219 281H328L351 432H241L219
281Z" />
<glyph unicode="$" glyph-name="dollar" horiz-adv-x="552" d="M479 590Q436 609 393 619T309 630Q303 630 298 630Q239 630 199 610T156 548Q155 538 155 530Q155 501 165 483T194 453T240 430T300 406Q345 387 384 369T452 328T497 273T514 196Q514 177 511
157Q506 116 488 87T444 38T384 7T313 -8V-107H241V-7Q187 -2 135 14T39 57L56 131Q101 104 151 88T251 70Q258 69 266 69Q324 69 366 92T417 165Q419 180 419 193Q419 220 409 239T378 273T329 301T264 329Q226 344 189 358T124 394T77 448T59 533Q59 543 60 553Q62
588 77 615T117 661T173 691T241 706V807H313V708Q361 705 408 694T494 665L479 590Z" />
<glyph unicode="%" glyph-name="percent" horiz-adv-x="776" d="M101 -17L601 717H677L177 -17H101ZM180 700Q246 700 283 659T320 521Q320 419 289 374T180 329Q103 329 72 374T41 521Q41 618 77 659T180 700ZM180 652Q160 652 145 646T119 625T104 585T98 521Q98
478 102 450T116 406T141 384T180 377Q203 377 219 383T244 406T258 450T263 521Q263 560 258 585T242 625T216 646T180 652ZM597 371Q663 371 700 330T737 193Q737 90 706 45T597 0Q520 0 489 45T458 193Q458 289 494 330T597 371ZM597 323Q577 323 562 317T536
296T521 256T515 193Q515 149 519 122T533 78T558 55T597 49Q620 48 636 54T661 77T675 121T680 193Q680 231 675 256T659 296T633 317T597 323Z" />
<glyph unicode="&amp;" glyph-name="ampersand" horiz-adv-x="634" d="M146 440Q122 472 110 503T98 565Q98 595 110 621T145 666T202 697T283 708Q319 708 350 699T403 673T438 630T450 573Q450 549 445 530T425 493T386 453T324 403L292 379L464 165Q475 183
478 205L500 344L577 336L547 168Q539 135 522 107L583 35L524 -17L465 53Q430 20 383 5T284 -9Q193 -10 132 22T55 125Q49 149 49 173Q49 235 86 287T186 390L146 440ZM268 444Q303 471 324 487T356 516T371 540T376 570Q378 610 352 627T285 644Q232 644 205
622T177 564Q177 524 210 482L250 430L268 444ZM237 333Q193 296 165 262T136 181Q136 169 139 156Q147 106 186 85T287 65Q324 64 357 76T411 114L237 333Z" />
<glyph unicode="&apos;" glyph-name="quotesingle" horiz-adv-x="163" d="M48 519L41 750H123L115 519H48Z" />
<glyph unicode="(" glyph-name="parenleft" horiz-adv-x="291" d="M251 703Q216 650 194 602T157 505Q141 451 135 398T129 286Q129 228 135 175T157 66Q171 19 193 -29T251 -131L193 -151Q150 -97 122 -48T76 52Q57 106 49 162T41 286Q41 352 49 409T76 520Q93
571 121 620T193 723L251 703Z" />
<glyph unicode=")" glyph-name="parenright" horiz-adv-x="291" d="M99 724Q142 670 170 621T216 521Q235 467 243 410T251 286Q251 220 243 163T216 52Q199 1 171 -48T99 -151L41 -131Q76 -78 98 -30T135 66Q151 121 157 174T163 286Q163 344 157 397T135 505Q121
553 99 601T41 703L99 724Z" />
<glyph unicode="*" glyph-name="asterisk" horiz-adv-x="365" d="M309 650L326 598L231 567L289 487L240 451L183 529L127 451L78 487L136 567L41 598L58 650L151 620V717H215V620L309 650Z" />
<glyph unicode="+" glyph-name="plus" horiz-adv-x="533" d="M307 258V72H227V258H41V322H227V508H307V322H493V258H307Z" />
<glyph unicode="," glyph-name="comma" horiz-adv-x="182" d="M120 -75H57L73 0H44V115H142V31L120 -75Z" />
<glyph unicode="-" glyph-name="hyphen" horiz-adv-x="414" d="M41 262V341H374V262H41Z" />
<glyph unicode="." glyph-name="period" horiz-adv-x="179" d="M41 0V115H139V0H41Z" />
<glyph unicode="/" glyph-name="slash" horiz-adv-x="396" d="M28 0L286 700H370L111 0H28Z" />
<glyph unicode="0" glyph-name="zero" horiz-adv-x="649" d="M325 684Q386 684 434 666T515 608T565 505T583 350Q583 254 570 186T526 75T446 11T325 -9Q253 -9 204 11T125 74T80 186T66 350Q66 441 83 504T134 607T215 665T325 684ZM325 604Q285 604 255 592T204
551T173 473T162 350Q162 267 170 213T198 128T248 83T325 70Q370 70 401 83T451 127T478 213T487 350Q487 424 477 473T446 551T395 592T325 604Z" />
<glyph unicode="1" glyph-name="one" horiz-adv-x="377" d="M197 -1V575L57 474L31 539L223 679H293V-1H197Z" />
<glyph unicode="2" glyph-name="two" horiz-adv-x="556" d="M39 605Q81 643 140 663T260 683Q301 683 338 674T404 646T455 599T483 532Q487 514 487 494Q487 431 453 364T353 233L185 78H492V-1H33V57L281 285Q338 339 365 391T392 489Q392 506 388 521Q376 565
339 584T251 604Q238 604 225 603Q178 598 133 580T57 533L39 605Z" />
<glyph unicode="3" glyph-name="three" horiz-adv-x="557" d="M39 608Q82 644 140 663T256 682Q347 683 400 646T463 548Q467 528 467 510Q467 462 439 425T348 366Q422 350 457 309T492 199Q492 191 491 183Q487 130 465 94T407 34T328 1T238 -9Q184 -9 132 5T39
46L55 116Q94 93 140 80T233 65Q266 65 295 73T348 97T384 140T397 204Q397 243 382 266T339 303T270 320T175 324V390Q287 390 334 417T379 509Q378 557 341 583T231 608Q186 606 141 590T56 543L39 608Z" />
<glyph unicode="4" glyph-name="four" horiz-adv-x="579" d="M538 222V147H452V0H371V147H41V207L343 679H452V222H538ZM371 222V586L137 222H371Z" />
<glyph unicode="5" glyph-name="five" horiz-adv-x="559" d="M167 604L149 396Q182 409 226 418T315 428Q353 426 387 416T448 384T490 324T506 232Q506 165 487 119T434 45T357 4T264 -9Q209 -9 155 5T56 46L72 117Q107 96 154 82T250 68Q284 68 313 76T365 103T399
154T410 232Q410 270 399 295T368 335T325 357T273 363Q231 362 191 350T121 323L63 328L94 679H477V604H167Z" />
<glyph unicode="6" glyph-name="six" horiz-adv-x="602" d="M156 369Q201 402 247 416T343 432Q382 432 419 423T485 390T533 329T551 232Q551 166 532 121T480 46T405 4T315 -9Q246 -9 198 11T121 75T78 187T65 352Q65 444 87 507T147 608T233 664T334 682Q382
683 429 673T518 644L504 576Q467 591 428 600T350 610Q346 610 342 610Q308 608 276 597T219 561T177 493T158 390L156 369ZM327 367Q283 367 242 352T158 300Q160 231 169 186T197 113T244 75T313 63Q376 63 416 102T457 229Q457 269 447 295T418 337T376 359T327
367Z" />
<glyph unicode="7" glyph-name="seven" horiz-adv-x="547" d="M201 -1H97L400 601H33V679H517V628L201 -1Z" />
<glyph unicode="8" glyph-name="eight" horiz-adv-x="610" d="M312 684Q349 684 385 676T452 650T501 601T523 527Q524 519 524 511Q524 446 490 409T400 350Q433 338 460 324T506 292T535 249T546 191Q546 175 543 156Q537 113 516 82T462 31T392 1T312 -9Q266
-9 225 -1T151 26T97 75T69 148Q65 173 65 193Q65 255 98 293T204 361Q179 371 158 383T121 413T97 455T88 511Q88 519 89 527Q91 574 112 604T165 652T236 677T312 684ZM325 387Q379 405 410 431T442 511Q442 518 441 524Q440 550 430 567T402 595T362 610T315
615Q290 615 266 611T223 596T192 569T179 524Q179 517 179 510Q179 479 188 460T216 427T260 405T319 386L325 387ZM285 315Q249 304 224 293T184 268T163 237T156 196Q156 179 159 157Q166 104 206 83T312 62Q365 62 406 86T454 163Q456 177 456 189Q456 216
447 233T419 263T373 286T312 307L285 315Z" />
<glyph unicode="9" glyph-name="nine" horiz-adv-x="601" d="M446 305Q401 271 355 257T258 241Q220 241 183 250T117 283T69 344T51 441Q51 507 70 553T122 627T197 669T287 682Q356 682 404 662T481 599T524 487T537 323Q537 231 515 168T455 66T369 10T268
-9Q262 -9 257 -9Q212 -9 168 1T84 29L98 97Q135 82 174 73T252 64Q256 64 260 64Q294 65 326 76T384 114T426 183T445 288L446 305ZM288 610Q225 610 185 571T145 444Q145 404 155 378T184 336T226 314T275 307Q319 306 360 321T444 374Q442 443 433 488T405 561T358
599T288 610Z" />
<glyph unicode=":" glyph-name="colon" horiz-adv-x="179" d="M41 402V517H139V402H41ZM41 0V115H139V0H41Z" />
<glyph unicode=";" glyph-name="semicolon" horiz-adv-x="182" d="M44 402V517H143V402H44ZM120 -75H57L73 0H44V115H143V31L120 -75Z" />
<glyph unicode="&lt;" glyph-name="less" horiz-adv-x="472" d="M138 247L431 96V16L41 223V272L431 479V399L138 247Z" />
<glyph unicode="=" glyph-name="equal" horiz-adv-x="533" d="M41 344V408H493V344H41ZM41 158V221H493V158H41Z" />
<glyph unicode="&gt;" glyph-name="greater" horiz-adv-x="472" d="M431 223L41 16V96L334 247L41 399V479L431 272V223Z" />
<glyph unicode="?" glyph-name="question" horiz-adv-x="516" d="M41 638Q78 672 132 690T244 709Q285 709 324 700T394 671T447 624T474 555Q477 536 477 519Q477 477 465 447T433 395T391 356T346 323Q316 301 300 281T283 227V191H187V227Q187 254 196 275T219
313T251 345T287 373Q306 387 323 401T353 433T374 470T382 515Q382 529 379 545Q370 589 331 611T236 633Q227 633 218 632Q175 630 133 614T58 569L41 638ZM186 1V99H284V1H186Z" />
<glyph unicode="@" glyph-name="at" horiz-adv-x="769" d="M635 -39Q590 -72 528 -90T385 -108Q291 -108 226 -86T119 -14T60 116T41 314Q41 423 64 498T131 620T239 688T385 709Q467 709 531 688T639 621T706 499T729 314Q729 241 709 200T656 139T586 114T514
109H475L474 147Q456 127 430 115T371 103Q298 102 258 147T217 302Q217 399 255 442T355 486Q360 486 366 486Q423 482 461 448V482H525V167H531Q558 168 582 172T625 190T654 234T665 314Q665 410 648 475T595 579T508 634T385 651Q315 651 263 635T175 579T123
475T105 314Q105 208 119 138T166 26T253 -33T385 -50Q464 -50 521 -33T620 17L635 -39ZM461 393Q429 431 379 435Q373 436 368 436Q326 436 304 405T281 302Q281 217 304 184T380 151Q408 151 428 163T461 195V393Z" />
<glyph unicode="A" glyph-name="A" horiz-adv-x="679" d="M550 0L489 172H191L130 0H29L283 700H396L651 0H550ZM470 251L340 617L210 251H470Z" />
<glyph unicode="B" glyph-name="B" horiz-adv-x="644" d="M362 700Q451 700 500 658T552 540Q554 478 531 436T457 376Q483 369 506 356T546 321T574 270T584 201Q583 100 529 50T381 0H84V700H362ZM175 397H353Q411 397 436 427T461 519Q461 576 430 600T345
624H175V397ZM175 75H361Q390 75 413 81T454 102T480 144T489 210Q489 254 474 278T437 314T393 328T355 331H175V75Z" />
<glyph unicode="C" glyph-name="C" horiz-adv-x="612" d="M556 41Q518 15 469 3T359 -9Q287 -8 233 11T143 74T89 188T71 360Q71 456 91 522T149 629T240 689T359 708Q417 709 467 696T556 656L540 580Q512 598 468 611T371 625Q321 625 283 612T219 569T180 487T167
360Q167 277 178 223T213 135T277 88T371 74Q425 74 469 87T540 117L556 41Z" />
<glyph unicode="D" glyph-name="D" horiz-adv-x="698" d="M340 700Q406 700 459 683T550 626T608 522T628 363Q628 263 612 194T560 81T471 19T340 0H84V700H340ZM180 80H340Q393 80 429 92T489 136T522 223T532 363Q532 439 520 489T483 568T423 608T340 620H180V80Z" />
<glyph unicode="E" glyph-name="E" horiz-adv-x="591" d="M180 621V402H483V324H180V79H541V0H84V700H526V621H180Z" />
<glyph unicode="F" glyph-name="F" horiz-adv-x="566" d="M180 621V390H473V311H180V0H84V700H515V621H180Z" />
<glyph unicode="G" glyph-name="G" horiz-adv-x="675" d="M598 36Q549 13 501 2T387 -9Q379 -9 370 -9Q294 -7 238 13T145 78T90 193T71 363Q71 458 91 523T148 629T238 688T359 708Q365 708 372 708Q433 708 483 699T583 670L567 594Q519 611 474 619T373 628Q321
628 283 615T219 571T180 490T167 363Q167 279 176 224T207 135T266 87T361 71Q374 70 385 70Q431 70 457 76T511 95V289H398V369H598V36Z" />
<glyph unicode="H" glyph-name="H" horiz-adv-x="696" d="M517 0V324H180V0H84V700H180V402H517V700H612V0H517Z" />
<glyph unicode="I" glyph-name="I" horiz-adv-x="264" d="M84 0V700H180V0H84Z" />
<glyph unicode="J" glyph-name="J" horiz-adv-x="510" d="M427 221Q427 159 408 116T356 46T282 5T196 -9Q151 -10 107 0T29 30L45 99Q71 86 103 78T169 70Q179 70 188 71Q216 73 242 82T288 110T319 159T331 231V700H427V221Z" />
<glyph unicode="K" glyph-name="K" horiz-adv-x="651" d="M624 0H508L289 328H180V0H84V700H180V407H289L495 700H610L373 367L624 0Z" />
<glyph unicode="L" glyph-name="L" horiz-adv-x="551" d="M523 79V0H84V700H180V79H523Z" />
<glyph unicode="M" glyph-name="M" horiz-adv-x="847" d="M673 0V540L457 0H386L171 540V0H79V700H196L422 124L647 700H764V0H673Z" />
<glyph unicode="N" glyph-name="N" horiz-adv-x="688" d="M514 0L171 541V0H79V700H176L519 156V700H610V0H514Z" />
<glyph unicode="O" glyph-name="O" horiz-adv-x="717" d="M359 708Q430 708 484 690T574 630T628 523T647 364Q647 264 633 193T585 78T496 12T359 -9Q277 -9 222 12T134 77T86 193T71 364Q71 457 89 522T144 629T234 689T359 708ZM359 629Q309 629 273 617T214
574T179 492T167 364Q167 277 176 221T207 131T266 84T359 71Q415 71 452 84T511 130T542 220T551 364Q551 441 540 492T505 573T445 616T359 629Z" />
<glyph unicode="P" glyph-name="P" horiz-adv-x="613" d="M341 700Q390 700 431 689T501 653T546 590T563 500Q563 392 514 333T354 273H179V0H84V700H341ZM179 349H345Q413 349 442 385T471 498Q471 566 435 595T334 624H179V349Z" />
<glyph unicode="Q" glyph-name="Q" horiz-adv-x="725" d="M500 14Q444 -8 359 -8Q277 -8 222 12T134 78T86 193T71 364Q71 457 89 523T144 630T234 690T359 709Q430 709 484 690T574 630T628 523T647 364Q647 256 631 183T574 65L657 -18L595 -81L500 14ZM167
364Q167 277 176 221T207 131T266 85T359 72Q415 72 452 85T511 131T542 220T551 364Q551 441 540 492T505 573T445 616T359 629Q309 629 273 617T214 574T179 492T167 364Z" />
<glyph unicode="R" glyph-name="R" horiz-adv-x="642" d="M345 700Q438 700 495 657T552 516Q552 428 519 379T411 319L589 0H483L322 307H180V0H84V700H345ZM180 383H345Q406 383 431 414T457 514Q457 574 426 599T335 624H180V383Z" />
<glyph unicode="S" glyph-name="S" horiz-adv-x="559" d="M56 131Q101 104 151 88T251 70Q258 69 266 69Q324 69 366 92T417 165Q419 180 419 193Q419 220 409 239T378 273T329 301T264 329Q226 344 189 358T124 394T77 448T59 533Q59 543 60 553Q63 594 82 623T133
672T203 700T286 709Q340 709 394 697T494 665L479 590Q436 609 393 619T309 630Q303 630 298 630Q239 630 199 610T156 548Q155 538 155 530Q155 501 165 483T194 453T240 430T300 406Q345 387 384 369T452 328T497 273T514 196Q514 177 511 157Q505 112 484 81T432
29T361 0T279 -9Q217 -8 154 9T39 57L56 131Z" />
<glyph unicode="T" glyph-name="T" horiz-adv-x="582" d="M339 621V0H244V621H29V700H554V621H339Z" />
<glyph unicode="U" glyph-name="U" horiz-adv-x="706" d="M628 297Q628 222 617 165T576 70T492 11T356 -9Q273 -9 220 11T137 69T96 165T84 297V700H180V297Q180 234 187 191T213 121T266 83T356 71Q411 71 445 82T499 121T525 191T532 297V700H628V297Z" />
<glyph unicode="V" glyph-name="V" horiz-adv-x="663" d="M275 0L29 700H129L332 101L535 700H635L389 0H275Z" />
<glyph unicode="W" glyph-name="W" horiz-adv-x="915" d="M598 0L458 550L318 0H202L31 700H129L260 110L405 700H511L656 110L787 700H885L714 0H598Z" />
<glyph unicode="X" glyph-name="X" horiz-adv-x="631" d="M603 0H494L316 287L139 0H29L254 352L32 700H141L318 421L493 700H603L381 348L603 0Z" />
<glyph unicode="Y" glyph-name="Y" horiz-adv-x="634" d="M365 0H270V238L29 700H134L317 330L501 700H606L365 237V0Z" />
<glyph unicode="Z" glyph-name="Z" horiz-adv-x="581" d="M161 79H537V0H42V53L413 621H66V700H532V647L161 79Z" />
<glyph unicode="[" glyph-name="bracketleft" horiz-adv-x="317" d="M122 648V-77H277V-138H41V708H262V648H122Z" />
<glyph unicode="\" glyph-name="backslash" horiz-adv-x="396" d="M286 0L28 700H112L370 0H286Z" />
<glyph unicode="]" glyph-name="bracketright" horiz-adv-x="317" d="M41 -138V-77H195V648H55V708H277V-138H41Z" />
<glyph unicode="^" glyph-name="asciicircum" horiz-adv-x="572" d="M454 370L286 634L119 370H39L249 700H324L534 370H454Z" />
<glyph unicode="_" glyph-name="underscore" horiz-adv-x="581" d="M41 -186V-108H541V-186H41Z" />
<glyph unicode="`" glyph-name="grave" horiz-adv-x="227" d="M120 624L41 750H123L188 624H120Z" />
<glyph unicode="a" glyph-name="a" horiz-adv-x="497" d="M68 493Q106 499 152 503T241 508Q333 508 387 469T441 342V0H370L367 63Q336 28 293 10T206 -8Q173 -8 144 1T92 30T56 79T42 149Q42 215 81 252T212 297L350 310V347Q350 401 321 425T230 449Q195 449
155 445T78 435L68 493ZM226 244Q170 238 147 215T123 148Q123 124 132 106T156 75T190 57T231 51Q267 51 298 68T354 123V256L226 244Z" />
<glyph unicode="b" glyph-name="b" horiz-adv-x="545" d="M153 452Q178 476 212 490T288 508Q297 508 304 508Q347 508 383 494T445 450T486 373T501 260Q501 186 486 135T442 51T373 5T281 -8Q234 -7 197 10T136 57L133 0H62V700H153V452ZM153 113Q172 85 201
68T269 51Q307 51 333 61T377 96T402 161T410 260Q410 360 378 403T285 447Q278 447 270 446Q198 441 153 386V113Z" />
<glyph unicode="c" glyph-name="c" horiz-adv-x="457" d="M418 25Q355 -10 270 -8Q217 -7 176 7T105 52T61 134T45 257Q45 326 62 374T109 451T180 494T270 508Q355 509 418 473L405 418Q351 445 288 445Q252 445 224 436T176 404T147 346T137 257Q137 200 145
161T172 99T219 66T288 56Q352 55 405 80L418 25Z" />
<glyph unicode="d" glyph-name="d" horiz-adv-x="545" d="M413 0L411 57Q386 28 350 11T265 -8Q215 -9 175 5T105 51T61 134T45 260Q45 326 60 373T101 450T164 494T242 508Q250 508 258 508Q300 505 334 491T394 452V700H485V0H413ZM394 386Q348 441 276 446Q268
447 261 447Q201 447 169 404T137 260Q137 201 144 161T169 97T213 62T277 51Q317 51 345 68T394 113V386Z" />
<glyph unicode="e" glyph-name="e" horiz-adv-x="518" d="M455 27Q414 10 373 1T281 -8Q224 -8 180 6T106 53T61 136T45 260Q45 390 103 449T266 508Q293 508 329 502T399 472T455 399T479 266Q479 250 478 234H135Q137 136 175 95T296 53Q342 53 376 61T441 83L455
27ZM398 285Q397 341 384 373T352 421T311 441T270 445Q205 444 171 409T136 285H398Z" />
<glyph unicode="f" glyph-name="f" horiz-adv-x="391" d="M113 553Q113 600 129 632T173 682Q209 708 263 708Q320 708 383 679L373 629Q320 649 285 649Q254 649 234 635Q220 623 212 604T204 553V500H346V441H204V0H113V441H29V500H113V553Z" />
<glyph unicode="g" glyph-name="g" horiz-adv-x="544" d="M392 51Q340 4 262 -2Q254 -2 247 -2Q157 -2 102 58T45 240Q45 312 60 363T104 446T173 494T265 508Q312 508 348 491T410 444L412 501H483V71Q483 6 472 -40T435 -117T368 -161T268 -176Q243 -176 215
-173T160 -165T108 -155T63 -143L74 -85Q89 -89 110 -94T155 -103T204 -111T251 -114Q292 -114 319 -105T362 -78T384 -32T392 35V51ZM393 387Q374 415 346 432T277 449Q239 450 213 439T169 404T144 339T136 240Q136 141 168 99T260 57Q268 57 276 58Q348 63 393
116V387Z" />
<glyph unicode="h" glyph-name="h" horiz-adv-x="544" d="M158 445Q186 476 225 492T305 508Q339 508 372 498T430 465T472 409T488 329V0H397V329Q397 358 388 380T362 417T326 439T283 446Q246 447 212 430T158 378V0H67V700H158V445Z" />
<glyph unicode="i" glyph-name="i" horiz-adv-x="221" d="M65 592V675H160V592H65ZM67 0V500H158V0H67Z" />
<glyph unicode="j" glyph-name="j" horiz-adv-x="231" d="M76 593V676H171V593H76ZM169 -5Q169 -63 149 -98T93 -148Q63 -163 22 -163Q-2 -163 -30 -158L-22 -108Q-9 -110 1 -110Q31 -110 49 -95Q63 -84 70 -63T78 -5V500H169V-5Z" />
<glyph unicode="k" glyph-name="k" horiz-adv-x="527" d="M233 301L381 500H489L313 270L499 0H391L234 238H158V0H67V700H158V301H233Z" />
<glyph unicode="l" glyph-name="l" horiz-adv-x="210" d="M63 0V700H155V0H63Z" />
<glyph unicode="m" glyph-name="m" horiz-adv-x="809" d="M137 441Q165 474 203 491T282 508Q324 509 365 491T429 435Q461 471 502 489T585 508Q618 508 648 498T701 466T739 410T753 331V0H666V331Q666 390 635 418T563 447Q532 446 503 431T451 384Q458 360
458 331V0H367V331Q367 390 336 418T265 446Q231 447 200 430T149 378V0H62V500H133L137 441Z" />
<glyph unicode="n" glyph-name="n" horiz-adv-x="539" d="M141 441Q170 474 211 491T295 508Q330 508 363 498T423 465T466 410T483 329V0H392V329Q392 359 382 381T356 417T320 439T276 447Q240 447 207 430T153 378V0H62V500H137L141 441Z" />
<glyph unicode="o" glyph-name="o" horiz-adv-x="560" d="M280 508Q333 508 376 495T451 452T498 375T515 260Q515 116 458 54T280 -8Q159 -8 102 54T45 260Q45 328 62 375T110 451T184 494T280 508ZM280 445Q245 445 219 436T174 406T146 350T137 260Q137 199
144 160T169 97T213 65T280 55Q320 55 347 64T391 97T416 159T424 260Q424 314 415 349T388 406T342 436T280 445Z" />
<glyph unicode="p" glyph-name="p" horiz-adv-x="550" d="M141 443Q167 472 205 490T293 508Q343 509 382 495T449 450T491 367T506 240Q506 174 491 127T450 50T387 6T309 -8Q301 -8 293 -8Q210 -2 158 48V-163H67V500H138L141 443ZM158 114Q203 59 275 54Q283
53 290 53Q350 53 382 96T415 240Q415 299 407 339T382 403T339 438T274 449Q235 449 206 432T158 387V114Z" />
<glyph unicode="q" glyph-name="q" horiz-adv-x="547" d="M394 48Q342 -2 258 -8Q250 -8 242 -8Q200 -8 164 6T102 50T60 127T45 240Q45 315 60 366T102 449T169 495T258 508Q307 508 346 490T411 443L413 500H485V-163H394V48ZM394 387Q374 415 346 432T277 449Q240
449 213 439T169 404T145 339T137 240Q137 140 169 97T261 53Q268 53 276 54Q348 59 394 114V387Z" />
<glyph unicode="r" glyph-name="r" horiz-adv-x="378" d="M345 439Q317 446 291 446Q269 446 250 441T214 425Q188 408 175 380T153 308V0H62V500H133L141 404Q168 460 213 486Q233 498 255 503T302 508Q329 508 358 501L345 439Z" />
<glyph unicode="s" glyph-name="s" horiz-adv-x="430" d="M46 98Q77 76 113 66T187 53H194Q236 53 268 68T307 118Q308 129 308 137Q308 176 280 194T199 233Q171 243 144 253T94 279T58 319T44 381Q44 388 45 395Q47 425 62 446T101 481T156 501T221 508Q261
509 301 502T376 480L363 422Q339 432 309 439T246 447Q242 447 238 447Q196 447 165 433T129 389Q129 382 129 376Q129 356 136 344T156 323T189 307T231 290Q265 277 294 265T346 235T381 196T394 139Q394 126 391 111Q387 79 370 57T327 20T270 0T208 -6Q162
-6 117 6T31 41L46 98Z" />
<glyph unicode="t" glyph-name="t" horiz-adv-x="387" d="M333 500V441H198V131Q198 103 207 86T232 59Q249 48 277 48Q296 48 322 54L331 2Q292 -6 263 -6Q228 -6 204 5Q165 14 136 43T107 131V441H26V500H107L122 626H198V500H333Z" />
<glyph unicode="u" glyph-name="u" horiz-adv-x="534" d="M478 109Q464 81 441 59T390 22T330 -1T268 -9Q226 -9 188 2T121 35T75 92T57 171V500H148V171Q148 140 157 118T183 82T221 60T265 53Q301 54 334 71T387 121V500H478V109Z" />
<glyph unicode="v" glyph-name="v" horiz-adv-x="545" d="M218 0L21 500H116L273 78L430 500H525L328 0H218Z" />
<glyph unicode="w" glyph-name="w" horiz-adv-x="741" d="M466 0L371 384L276 0H161L21 500H110L218 85L318 500H424L524 85L632 500H721L581 0H466Z" />
<glyph unicode="x" glyph-name="x" horiz-adv-x="508" d="M488 0H385L253 207L124 0H21L191 251L25 500H128L255 294L380 500H483L317 249L488 0Z" />
<glyph unicode="y" glyph-name="y" horiz-adv-x="544" d="M320 -39Q303 -85 273 -110T204 -144Q185 -148 164 -148Q118 -148 68 -129L80 -80Q114 -93 141 -93Q156 -93 170 -89Q190 -82 205 -67T231 -23L237 -8L21 500H117L282 83L430 500H525L320 -39Z" />
<glyph unicode="z" glyph-name="z" horiz-adv-x="458" d="M142 63H419V0H31V43L303 437H43V500H415V457L142 63Z" />
<glyph unicode="{" glyph-name="braceleft" horiz-adv-x="350" d="M310 656Q281 656 259 655T221 647Q203 641 194 624T184 571V389Q184 331 153 307Q144 298 132 294Q144 291 153 282Q184 257 184 200V18Q184 -16 192 -33T221 -57Q236 -64 258 -65T310 -67V-129Q260
-129 226 -126T169 -111Q135 -93 120 -64T105 13V192Q105 215 100 230T83 255Q68 264 41 265V324Q68 325 82 333Q95 342 100 358T105 397V575Q105 623 120 652T169 700Q192 712 226 715T310 718V656Z" />
<glyph unicode="|" glyph-name="bar" horiz-adv-x="250" d="M84 -163V750H167V-163H84Z" />
<glyph unicode="}" glyph-name="braceright" horiz-adv-x="350" d="M41 718Q91 718 125 715T182 699Q217 682 231 653T246 575V396Q246 373 251 358T269 333Q283 324 310 323V265Q283 264 268 254Q256 246 251 230T246 192V13Q246 -35 232 -64T182 -111Q159 -123
125 -126T41 -129V-67Q71 -67 93 -66T130 -57Q151 -50 159 -33T167 18V200Q167 257 199 282Q208 291 219 294Q207 298 199 307Q167 331 167 389V571Q167 607 158 624T130 647Q114 654 93 655T41 656V718Z" />
<glyph unicode="~" glyph-name="asciitilde" horiz-adv-x="510" d="M471 326Q468 281 452 252T411 207Q387 192 357 192Q319 192 279 214L224 243Q188 262 161 262Q143 262 128 254Q100 240 91 198L41 199Q44 244 60 274T100 319Q125 334 155 334Q192 334 232
312L288 282Q323 264 351 264Q369 264 383 271Q412 286 421 328L471 326Z" />
</font>
</defs>
</svg>
